M48
; DRILL file {KiCad 8.0.3} date 2024-07-19T17:25:16+0200
; FORMAT={-:-/ absolute / inch / decimal}
; #@! TF.CreationDate,2024-07-19T17:25:16+02:00
; #@! TF.GenerationSoftware,Kicad,Pcbnew,8.0.3
; #@! TF.FileFunction,Plated,1,4,PTH
FMAT,2
INCH
; #@! TA.AperFunction,Plated,PTH,ViaDrill
T1C0.0079
; #@! TA.AperFunction,Plated,PTH,ComponentDrill
T2C0.0079
; #@! TA.AperFunction,Plated,PTH,ViaDrill
T3C0.0118
; #@! TA.AperFunction,Plated,PTH,ComponentDrill
T4C0.0118
; #@! TA.AperFunction,Plated,PTH,ComponentDrill
T5C0.0236
; #@! TA.AperFunction,Plated,PTH,ComponentDrill
T6C0.0300
; #@! TA.AperFunction,Plated,PTH,ComponentDrill
T7C0.0404
; #@! TA.AperFunction,Plated,PTH,ComponentDrill
T8C0.0433
; #@! TA.AperFunction,Plated,PTH,ViaDrill
T9C0.1181
; #@! TA.AperFunction,Plated,PTH,ComponentDrill
T10C0.1457
%
G90
G05
T1
X0.6299Y-5.5433
X0.6378Y-5.4134
X0.6457Y-5.0276
X0.6496Y-4.9409
X0.6496Y-5.1102
X0.6535Y-4.7402
X0.6535Y-5.2677
X0.6575Y-5.3543
X0.6732Y-4.9843
X0.674Y-5.47
X0.6811Y-4.8937
X0.689Y-5.0276
X0.6929Y-5.0984
X0.7047Y-4.2717
X0.708Y-5.618
X0.708Y-5.654
X0.7126Y-3.5157
X0.7165Y-2.9331
X0.7165Y-4.2205
X0.7165Y-4.5276
X0.72Y-5.636
X0.7205Y-1.2441
X0.7205Y-1.2835
X0.7205Y-4.5984
X0.7244Y-1.0591
X0.7244Y-1.5551
X0.7244Y-1.8976
X0.7244Y-2.1732
X0.7244Y-2.4961
X0.7244Y-3.6614
X0.7244Y-3.7677
X0.7244Y-4.0157
X0.732Y-5.618
X0.732Y-5.654
X0.7362Y-1.2638
X0.744Y-5.636
X0.748Y-1.2441
X0.748Y-1.2835
X0.754Y-5.618
X0.754Y-5.654
X0.7638Y-1.2638
X0.772Y-3.4524
X0.772Y-3.4797
X0.772Y-3.5071
X0.772Y-3.5344
X0.772Y-3.5617
X0.772Y-3.5891
X0.772Y-3.6164
X0.7756Y-1.2441
X0.7756Y-1.2835
X0.7795Y-4.3386
X0.7795Y-4.6299
X0.786Y-3.4664
X0.786Y-3.4936
X0.786Y-3.5208
X0.786Y-3.548
X0.786Y-3.5752
X0.786Y-3.6024
X0.7874Y-3.374
X0.7874Y-3.8307
X0.7874Y-5.9606
X0.7913Y-3.748
X0.7913Y-4.1417
X0.7953Y-6.1496
X0.7992Y-4.5551
X0.802Y-3.4524
X0.802Y-3.5344
X0.802Y-3.5617
X0.802Y-3.5891
X0.802Y-3.6164
X0.8071Y-3.6969
X0.8071Y-3.8819
X0.811Y-4.1811
X0.811Y-5.7953
X0.811Y-5.9055
X0.811Y-5.9961
X0.815Y-3.9567
X0.815Y-4.0591
X0.815Y-5.8504
X0.8228Y-1.1063
X0.8228Y-3.5472
X0.8228Y-3.5746
X0.8228Y-4.3622
X0.8268Y-3.7638
X0.8268Y-4.0276
X0.83Y-5.548
X0.8307Y-4.4213
X0.8307Y-6.1772
X0.8354Y-2.378
X0.8386Y-5.311
X0.8386Y-5.3937
X0.8386Y-5.7402
X0.8386Y-5.9685
X0.84Y-5.452
X0.842Y-2.9613
X0.842Y-2.9887
X0.842Y-3.016
X0.842Y-3.0433
X0.842Y-3.0707
X0.8425Y-4.5787
X0.844Y-2.1713
X0.844Y-2.1987
X0.844Y-2.226
X0.844Y-2.2533
X0.844Y-2.2807
X0.844Y-4.976
X0.8441Y-5.012
X0.8465Y-1.6929
X0.848Y-1.3473
X0.848Y-1.3747
X0.848Y-1.402
X0.848Y-1.4293
X0.848Y-1.4567
X0.8504Y-2.563
X0.8504Y-3.2677
X0.8504Y-5.815
X0.8543Y-1.6654
X0.8543Y-6.0157
X0.855Y-6.205
X0.856Y-2.9753
X0.856Y-3.0025
X0.856Y-3.0297
X0.856Y-3.0569
X0.856Y-3.0841
X0.858Y-2.1853
X0.858Y-2.2125
X0.858Y-2.2397
X0.858Y-2.2669
X0.858Y-2.2941
X0.8583Y-1.7559
X0.862Y-1.3613
X0.862Y-1.3885
X0.862Y-1.4157
X0.862Y-1.4429
X0.862Y-1.4701
X0.8622Y-1.7165
X0.8622Y-3.8346
X0.8622Y-6.1457
X0.8661Y-2.6772
X0.8661Y-3.4882
X0.8661Y-4.4882
X0.8701Y-1.7992
X0.8701Y-1.8819
X0.8701Y-3.2953
X0.872Y-2.9613
X0.872Y-2.9887
X0.872Y-3.016
X0.872Y-3.0433
X0.872Y-3.0707
X0.872Y-5.328
X0.874Y-2.1713
X0.874Y-2.1987
X0.874Y-2.226
X0.874Y-2.2533
X0.874Y-2.2807
X0.874Y-3.4291
X0.878Y-1.3473
X0.878Y-1.3747
X0.878Y-1.402
X0.878Y-1.4293
X0.878Y-1.4567
X0.8781Y-5.2779
X0.8819Y-1.685
X0.8858Y-1.6496
X0.8858Y-1.8386
X0.8858Y-5.9449
X0.8898Y-3.1772
X0.8937Y-3.689
X0.8937Y-3.9213
X0.9094Y-4.5276
X0.91Y-6.325
X0.9134Y-1.122
X0.9134Y-3.3976
X0.9134Y-4.0039
X0.916Y-5.406
X0.9173Y-1.0433
X0.918Y-5.308
X0.92Y-4.892
X0.92Y-4.924
X0.92Y-5.08
X0.92Y-5.112
X0.92Y-5.795
X0.92Y-5.9706
X0.926Y-5.548
X0.9291Y-2.5433
X0.9291Y-5.5039
X0.93Y-4.908
X0.93Y-5.096
X0.93Y-5.945
X0.9319Y-1.6654
X0.9331Y-0.9134
X0.9331Y-3.7323
X0.9331Y-6.1693
X0.935Y-5.82
X0.937Y-1.0827
X0.937Y-4.4016
X0.94Y-4.892
X0.94Y-4.924
X0.94Y-5.08
X0.94Y-5.112
X0.9409Y-2.5984
X0.9409Y-4.0512
X0.9409Y-5.1575
X0.944Y-4.64
X0.944Y-4.676
X0.9449Y-4.8425
X0.9488Y-1.8819
X0.95Y-4.908
X0.95Y-5.096
X0.95Y-5.453
X0.95Y-6.205
X0.9528Y-1.7795
X0.954Y-4.658
X0.9567Y-1.9173
X0.9567Y-3.9567
X0.96Y-4.892
X0.96Y-4.924
X0.96Y-5.08
X0.96Y-5.112
X0.9606Y-0.7795
X0.9606Y-4.815
X0.964Y-5.2666
X0.9646Y-1.6693
X0.9646Y-5.8858
X0.966Y-4.64
X0.966Y-4.676
X0.9724Y-2.7047
X0.9764Y-0.752
X0.9764Y-3.2953
X0.9764Y-4.122
X0.9764Y-5.0433
X0.978Y-4.658
X0.9788Y-1.3917
X0.9803Y-0.8228
X0.9803Y-1.0512
X0.9803Y-1.9921
X0.9803Y-2.6142
X0.9803Y-4.0551
X0.9843Y-2.7795
X0.9882Y-1.8858
X0.99Y-4.64
X0.99Y-4.676
X0.9921Y-3.248
X0.9921Y-3.4016
X1.0Y-5.3463
X1.002Y-5.318
X1.0039Y-3.9449
X1.005Y-6.325
X1.0055Y-1.729
X1.0055Y-1.7527
X1.0055Y-1.7763
X1.0116Y-5.3329
X1.0118Y-5.5394
X1.0157Y-4.7126
X1.0197Y-1.8622
X1.022Y-4.978
X1.022Y-5.318
X1.0227Y-5.3477
X1.024Y-5.448
X1.0252Y-1.729
X1.0252Y-1.7527
X1.0252Y-1.7763
X1.026Y-5.046
X1.026Y-5.07
X1.026Y-5.098
X1.0315Y-6.1772
X1.0329Y-5.3332
X1.035Y-5.464
X1.0354Y-0.9134
X1.044Y-5.06
X1.044Y-5.086
X1.044Y-5.11
X1.044Y-5.318
X1.0445Y-5.3466
X1.0449Y-1.7409
X1.0449Y-1.7645
X1.045Y-6.205
X1.0472Y-2.5669
X1.048Y-5.45
X1.0528Y-1.1611
X1.0528Y-1.1811
X1.0551Y-5.7126
X1.0591Y-1.0709
X1.06Y-5.046
X1.06Y-5.072
X1.06Y-5.464
X1.063Y-1.1417
X1.0709Y-6.0787
X1.074Y-5.45
X1.0748Y-1.0945
X1.0748Y-1.1611
X1.0748Y-1.1811
X1.0748Y-1.4567
X1.078Y-5.06
X1.082Y-5.876
X1.0827Y-2.6181
X1.084Y-5.9037
X1.086Y-5.8385
X1.0861Y-5.818
X1.0866Y-1.1417
X1.0866Y-1.2953
X1.0898Y-5.9557
X1.09Y-5.464
X1.09Y-5.9379
X1.0906Y-1.5039
X1.0906Y-2.5512
X1.092Y-5.072
X1.094Y-5.046
X1.0945Y-5.7087
X1.0968Y-1.1611
X1.0968Y-1.1811
X1.0984Y-1.3543
X1.1Y-6.325
X1.1066Y-5.818
X1.1066Y-5.8385
X1.108Y-5.9379
X1.108Y-5.9557
X1.1142Y-6.185
X1.116Y-4.978
X1.118Y-5.972
X1.1181Y-2.0827
X1.1181Y-2.8661
X1.12Y-3.6446
X1.122Y-3.8006
X1.1248Y-5.8292
X1.1253Y-5.428
X1.126Y-1.3858
X1.126Y-2.2677
X1.126Y-5.382
X1.126Y-5.9379
X1.126Y-5.9557
X1.1339Y-1.0906
X1.1339Y-3.122
X1.134Y-5.182
X1.134Y-5.206
X1.136Y-5.972
X1.1378Y-2.5551
X1.1378Y-3.0669
X1.14Y-6.205
X1.141Y-5.408
X1.141Y-5.448
X1.1416Y-4.9548
X1.1417Y-0.9252
X1.1417Y-1.1535
X1.1417Y-4.8346
X1.1422Y-5.0006
X1.1452Y-5.8532
X1.1457Y-1.9803
X1.1457Y-2.3465
X1.1457Y-2.7756
X1.146Y-5.284
X1.1496Y-4.0827
X1.15Y-5.194
X1.1535Y-2.248
X1.1566Y-5.2234
X1.1567Y-5.382
X1.1567Y-5.428
X1.1575Y-2.6299
X1.1575Y-4.3701
X1.1575Y-4.4488
X1.1575Y-4.9291
X1.1576Y-5.2636
X1.1614Y-4.2953
X1.1614Y-4.3307
X1.1654Y-1.4685
X1.1654Y-3.1457
X1.1654Y-6.0906
X1.1698Y-5.9022
X1.1723Y-5.408
X1.1723Y-5.448
X1.1732Y-4.4173
X1.1772Y-4.8583
X1.1772Y-5.6772
X1.1811Y-0.7953
X1.1811Y-0.8543
X1.1811Y-3.0315
X1.1811Y-3.9685
X1.185Y-5.755
X1.185Y-1.0984
X1.185Y-5.6024
X1.186Y-5.918
X1.188Y-5.382
X1.188Y-5.428
X1.189Y-4.1024
X1.1902Y-5.9817
X1.192Y-6.006
X1.1929Y-3.4409
X1.1929Y-4.0512
X1.1929Y-4.6693
X1.195Y-6.325
X1.1969Y-3.1496
X1.1969Y-5.5
X1.2Y-5.656
X1.2008Y-6.185
X1.202Y-5.6884
X1.202Y-5.7128
X1.204Y-5.616
X1.2047Y-2.3465
X1.2047Y-3.0906
X1.2047Y-4.315
X1.205Y-5.785
X1.2087Y-4.7598
X1.216Y-5.952
X1.2165Y-1.3701
X1.2165Y-1.3937
X1.2205Y-2.374
X1.2205Y-4.4055
X1.2244Y-1.5512
X1.228Y-4.1186
X1.2283Y-2.2953
X1.2283Y-2.5354
X1.2283Y-4.6772
X1.2283Y-4.8465
X1.232Y-1.914
X1.232Y-1.934
X1.232Y-1.954
X1.232Y-1.976
X1.232Y-1.998
X1.232Y-2.02
X1.232Y-2.042
X1.2323Y-1.1811
X1.2323Y-1.252
X1.234Y-2.698
X1.234Y-2.718
X1.234Y-2.738
X1.234Y-2.76
X1.234Y-2.782
X1.234Y-2.804
X1.234Y-2.826
X1.235Y-6.205
X1.2402Y-3.4173
X1.2402Y-3.4921
X1.2441Y-4.7283
X1.2441Y-4.8031
X1.248Y-5.582
X1.248Y-1.6024
X1.25Y-5.952
X1.254Y-1.914
X1.254Y-1.934
X1.254Y-1.954
X1.254Y-1.976
X1.254Y-1.998
X1.254Y-2.02
X1.254Y-2.042
X1.2559Y-1.4764
X1.2559Y-2.4685
X1.256Y-2.698
X1.256Y-2.718
X1.256Y-2.738
X1.256Y-2.76
X1.256Y-2.782
X1.256Y-2.804
X1.256Y-2.826
X1.258Y-5.024
X1.2677Y-4.4567
X1.27Y-6.1
X1.2717Y-2.3465
X1.2756Y-1.8583
X1.2756Y-2.2795
X1.2756Y-2.3976
X1.276Y-1.914
X1.276Y-1.934
X1.276Y-1.954
X1.276Y-1.976
X1.276Y-1.998
X1.276Y-2.02
X1.276Y-2.042
X1.276Y-3.8126
X1.278Y-2.698
X1.278Y-2.718
X1.278Y-2.738
X1.278Y-2.76
X1.278Y-2.782
X1.278Y-2.804
X1.278Y-2.826
X1.28Y-5.548
X1.2874Y-1.315
X1.2874Y-2.5591
X1.29Y-6.08
X1.29Y-6.325
X1.2913Y-6.1969
X1.295Y-5.775
X1.2953Y-1.2323
X1.298Y-5.064
X1.298Y-5.5324
X1.298Y-6.014
X1.3Y-5.895
X1.3031Y-1.0827
X1.3031Y-5.6535
X1.311Y-4.8071
X1.311Y-5.8268
X1.3189Y-2.3425
X1.3228Y-2.6299
X1.3228Y-4.7638
X1.33Y-6.21
X1.3307Y-5.0236
X1.332Y-3.6146
X1.332Y-4.1126
X1.332Y-4.1386
X1.3346Y-1.9528
X1.3346Y-4.6457
X1.3346Y-4.878
X1.338Y-3.706
X1.3425Y-1.1142
X1.3425Y-2.0079
X1.3425Y-2.3819
X1.3425Y-2.4724
X1.3425Y-3.6693
X1.3436Y-3.5986
X1.344Y-3.5666
X1.346Y-5.82
X1.3465Y-0.9134
X1.352Y-4.81
X1.352Y-3.5826
X1.352Y-3.6146
X1.352Y-3.8186
X1.354Y-3.732
X1.354Y-5.068
X1.354Y-3.7646
X1.3583Y-2.9449
X1.3622Y-2.5591
X1.3622Y-4.626
X1.364Y-3.5666
X1.3643Y-3.5986
X1.3657Y-5.5023
X1.3661Y-2.6772
X1.3661Y-2.8661
X1.3701Y-1.4646
X1.3701Y-1.748
X1.374Y-1.0787
X1.374Y-3.5826
X1.374Y-3.6146
X1.3799Y-3.691
X1.38Y-3.816
X1.3819Y-0.7677
X1.3819Y-0.8583
X1.382Y-4.982
X1.384Y-3.5666
X1.384Y-3.5986
X1.385Y-6.325
X1.386Y-3.744
X1.3937Y-5.5236
X1.4Y-5.82
X1.4003Y-3.731
X1.4016Y-4.9173
X1.402Y-4.1186
X1.4027Y-3.6744
X1.4048Y-4.3086
X1.4058Y-4.3426
X1.406Y-5.674
X1.4078Y-4.3766
X1.4087Y-5.0667
X1.4101Y-3.7709
X1.4117Y-3.814
X1.417Y-4.3246
X1.418Y-4.3586
X1.42Y-4.3926
X1.423Y-5.4702
X1.425Y-6.21
X1.4291Y-3.4528
X1.4291Y-4.6496
X1.4296Y-4.3086
X1.4306Y-4.3426
X1.4326Y-4.3766
X1.4331Y-0.6102
X1.4331Y-0.6496
X1.4331Y-5.5945
X1.4331Y-5.685
X1.434Y-5.516
X1.434Y-5.71
X1.44Y-4.762
X1.442Y-4.864
X1.442Y-4.3246
X1.443Y-4.3586
X1.4449Y-0.6299
X1.4449Y-0.6693
X1.445Y-4.3926
X1.4488Y-2.7717
X1.4488Y-5.5551
X1.452Y-6.054
X1.4528Y-0.811
X1.4528Y-2.2008
X1.4544Y-4.3086
X1.4554Y-4.3426
X1.4567Y-2.4606
X1.4567Y-2.6654
X1.4574Y-4.3766
X1.46Y-5.95
X1.46Y-6.0
X1.46Y-6.1392
X1.4605Y-6.0905
X1.4606Y-0.6102
X1.4606Y-0.6496
X1.4606Y-0.7835
X1.4606Y-4.7323
X1.4646Y-4.8071
X1.467Y-4.3246
X1.468Y-5.8998
X1.468Y-4.3586
X1.4685Y-6.2717
X1.47Y-6.115
X1.47Y-4.3926
X1.4724Y-0.6299
X1.4724Y-0.6693
X1.4764Y-2.8307
X1.4764Y-3.7165
X1.4792Y-4.3086
X1.4802Y-4.3426
X1.4803Y-2.6142
X1.4803Y-3.4921
X1.4803Y-5.1063
X1.482Y-5.556
X1.4822Y-4.3766
X1.4843Y-5.437
X1.486Y-3.5486
X1.4882Y-0.6102
X1.4882Y-0.6496
X1.492Y-5.778
X1.492Y-4.3246
X1.493Y-4.3586
X1.495Y-4.3926
X1.4979Y-5.5399
X1.4994Y-3.8006
X1.5Y-0.6299
X1.5Y-0.6693
X1.5Y-1.0945
X1.5Y-5.356
X1.502Y-4.852
X1.5039Y-4.9449
X1.504Y-4.3086
X1.505Y-4.3426
X1.507Y-4.3766
X1.5079Y-2.1732
X1.5157Y-0.6102
X1.5157Y-0.6496
X1.5158Y-4.1366
X1.5193Y-4.841
X1.5276Y-5.0157
X1.5315Y-6.2992
X1.532Y-5.744
X1.534Y-4.0186
X1.544Y-5.866
X1.544Y-5.904
X1.544Y-5.942
X1.544Y-5.972
X1.544Y-6.008
X1.544Y-4.0837
X1.5475Y-6.0805
X1.5512Y-2.5591
X1.5512Y-3.815
X1.5578Y-5.779
X1.5591Y-4.6535
X1.5626Y-5.7575
X1.563Y-1.5
X1.563Y-4.2323
X1.563Y-4.3268
X1.563Y-4.4173
X1.566Y-5.888
X1.566Y-5.924
X1.566Y-5.96
X1.566Y-5.992
X1.5669Y-4.7598
X1.5748Y-1.3504
X1.576Y-3.5766
X1.5787Y-4.5709
X1.5787Y-6.2598
X1.584Y-5.866
X1.584Y-5.904
X1.584Y-5.942
X1.584Y-5.972
X1.584Y-6.008
X1.5866Y-2.1772
X1.5906Y-4.3425
X1.592Y-3.5526
X1.5945Y-2.2559
X1.596Y-6.086
X1.5984Y-2.9685
X1.5984Y-4.1181
X1.5984Y-4.2323
X1.5984Y-4.8701
X1.6026Y-3.764
X1.606Y-5.888
X1.606Y-5.924
X1.606Y-5.96
X1.606Y-5.992
X1.6062Y-3.7438
X1.6063Y-6.3071
X1.6102Y-4.0276
X1.6142Y-1.2165
X1.6142Y-3.4567
X1.6181Y-1.4331
X1.6181Y-4.7008
X1.6181Y-5.5039
X1.622Y-4.9331
X1.6299Y-4.8858
X1.63Y-5.174
X1.63Y-5.196
X1.6339Y-3.8819
X1.6339Y-5.5945
X1.6378Y-6.185
X1.6417Y-3.7165
X1.6417Y-4.8386
X1.6417Y-5.126
X1.645Y-5.8045
X1.6457Y-5.6772
X1.6496Y-4.5197
X1.6535Y-4.6535
X1.6643Y-5.7957
X1.6652Y-5.835
X1.6654Y-2.0039
X1.67Y-3.708
X1.67Y-5.406
X1.67Y-5.56
X1.6732Y-5.6772
X1.6732Y-6.2874
X1.6772Y-1.3425
X1.6772Y-4.8858
X1.68Y-5.888
X1.68Y-5.9356
X1.68Y-5.983
X1.68Y-6.033
X1.6809Y-5.7838
X1.6811Y-5.1417
X1.6929Y-4.7992
X1.6969Y-1.8583
X1.7047Y-4.0787
X1.7087Y-3.8937
X1.7087Y-5.8937
X1.71Y-6.013
X1.7104Y-5.9182
X1.7126Y-3.4724
X1.7126Y-3.7402
X1.7126Y-4.4213
X1.715Y-5.863
X1.715Y-5.963
X1.7165Y-4.1654
X1.7198Y-3.5772
X1.7198Y-3.6152
X1.7198Y-3.6552
X1.7244Y-3.8465
X1.7244Y-4.937
X1.7244Y-6.2992
X1.7338Y-3.5952
X1.7338Y-3.6332
X1.735Y-6.003
X1.7374Y-5.756
X1.7384Y-4.7127
X1.74Y-5.953
X1.7402Y-4.2913
X1.7441Y-1.1181
X1.7441Y-4.0748
X1.7441Y-5.5118
X1.7441Y-5.8937
X1.7441Y-6.1024
X1.7441Y-6.2598
X1.746Y-5.664
X1.7478Y-3.5772
X1.7478Y-3.6152
X1.7478Y-3.6552
X1.748Y-3.7441
X1.748Y-5.1181
X1.752Y-3.9921
X1.752Y-6.3031
X1.7559Y-4.685
X1.756Y-5.764
X1.7598Y-5.0236
X1.7598Y-5.811
X1.7658Y-3.6352
X1.7677Y-1.2087
X1.7677Y-6.0433
X1.7702Y-5.661
X1.7756Y-2.4134
X1.7756Y-6.1732
X1.7795Y-5.5669
X1.7795Y-5.8228
X1.7798Y-3.6552
X1.7835Y-4.4449
X1.7913Y-5.9764
X1.7938Y-3.6352
X1.7992Y-6.2205
X1.804Y-5.388
X1.804Y-5.444
X1.8071Y-3.9449
X1.8098Y-3.6552
X1.811Y-3.8622
X1.811Y-4.1575
X1.811Y-6.1811
X1.815Y-3.7717
X1.8189Y-5.7992
X1.8268Y-5.2874
X1.8307Y-2.7205
X1.8346Y-5.0197
X1.838Y-4.958
X1.8386Y-2.1693
X1.8386Y-4.6496
X1.8386Y-5.5748
X1.8425Y-1.2205
X1.8425Y-6.1772
X1.8465Y-4.5157
X1.8504Y-5.6535
X1.8543Y-1.1811
X1.8543Y-5.7126
X1.8579Y-5.8075
X1.8583Y-0.8031
X1.8583Y-5.5118
X1.8594Y-6.1659
X1.86Y-5.174
X1.86Y-5.206
X1.8622Y-2.5039
X1.8622Y-4.9882
X1.8622Y-5.6142
X1.8701Y-5.063
X1.878Y-6.0591
X1.8783Y-5.8075
X1.8819Y-2.3189
X1.89Y-5.39
X1.892Y-5.436
X1.9016Y-5.4724
X1.9134Y-6.2205
X1.9224Y-4.8687
X1.9252Y-5.3701
X1.9449Y-0.8031
X1.9449Y-1.6299
X1.9764Y-6.2756
X1.9843Y-3.2913
X1.9961Y-1.437
X2.0039Y-2.622
X2.0079Y-4.1496
X2.0106Y-4.6741
X2.0157Y-2.3937
X2.0157Y-5.9882
X2.0197Y-5.8976
X2.0257Y-3.0493
X2.0315Y-3.5669
X2.0315Y-5.8465
X2.0315Y-6.0945
X2.0354Y-1.1969
X2.0354Y-1.9488
X2.0354Y-2.9843
X2.0354Y-3.8031
X2.0433Y-3.2205
X2.0433Y-5.374
X2.0433Y-6.2441
X2.0472Y-6.3543
X2.0472Y-6.374
X2.0472Y-6.3937
X2.0512Y-3.6535
X2.0512Y-5.9488
X2.0551Y-2.6024
X2.0551Y-6.0276
X2.0591Y-0.811
X2.063Y-3.1457
X2.0669Y-1.2835
X2.0669Y-4.7913
X2.0669Y-4.8819
X2.0669Y-5.7126
X2.0669Y-6.3622
X2.0669Y-6.3858
X2.0748Y-4.8465
X2.0748Y-4.9252
X2.0748Y-4.9961
X2.0787Y-5.0827
X2.0787Y-5.1575
X2.0827Y-4.6929
X2.0866Y-5.315
X2.0866Y-6.1772
X2.0866Y-6.3543
X2.0866Y-6.374
X2.0866Y-6.3937
X2.0984Y-2.0906
X2.1024Y-6.1181
X2.1142Y-4.626
X2.1142Y-5.3661
X2.1181Y-6.0079
X2.122Y-2.248
X2.122Y-4.9606
X2.122Y-5.0669
X2.122Y-5.2441
X2.1224Y-4.878
X2.126Y-1.6142
X2.126Y-2.5236
X2.126Y-4.5157
X2.1299Y-1.5354
X2.1339Y-2.7283
X2.1417Y-3.4173
X2.1496Y-3.6535
X2.1535Y-2.5748
X2.1535Y-4.0394
X2.1535Y-4.4213
X2.1575Y-5.9173
X2.1614Y-0.811
X2.1654Y-1.8622
X2.1654Y-4.3228
X2.1732Y-1.2795
X2.1732Y-6.1181
X2.1772Y-4.0906
X2.1772Y-4.5866
X2.1811Y-1.5236
X2.185Y-4.689
X2.185Y-6.0197
X2.189Y-3.7244
X2.189Y-4.2874
X2.1969Y-1.874
X2.2008Y-1.1457
X2.2008Y-2.8307
X2.2008Y-5.0039
X2.2008Y-6.3543
X2.2008Y-6.374
X2.2008Y-6.3937
X2.2024Y-4.878
X2.2087Y-5.0945
X2.2205Y-3.1535
X2.2205Y-6.3622
X2.2205Y-6.3858
X2.2303Y-3.1909
X2.2323Y-5.8937
X2.2362Y-4.9606
X2.2402Y-3.0551
X2.2402Y-6.3543
X2.2402Y-6.374
X2.2402Y-6.3937
X2.2441Y-2.378
X2.248Y-4.5945
X2.252Y-6.0276
X2.252Y-6.2677
X2.2559Y-5.0433
X2.2677Y-0.815
X2.2717Y-1.4134
X2.2717Y-4.815
X2.2717Y-5.3307
X2.2724Y-6.18
X2.2795Y-4.9252
X2.2835Y-2.4843
X2.2867Y-6.205
X2.2887Y-6.158
X2.2992Y-1.189
X2.2992Y-1.8425
X2.2992Y-4.3622
X2.2992Y-4.7165
X2.301Y-6.18
X2.3031Y-3.2362
X2.3031Y-4.4724
X2.311Y-3.7638
X2.3141Y-3.2552
X2.315Y-4.2441
X2.315Y-4.6654
X2.315Y-6.378
X2.3153Y-6.205
X2.3173Y-6.158
X2.3189Y-2.5945
X2.3189Y-3.4252
X2.3228Y-1.3661
X2.3228Y-3.5709
X2.3228Y-5.0984
X2.3296Y-6.18
X2.3307Y-4.748
X2.3346Y-2.0551
X2.3346Y-4.8189
X2.3386Y-1.4488
X2.3425Y-4.9921
X2.3439Y-6.205
X2.3459Y-6.158
X2.3465Y-2.2283
X2.3465Y-6.0118
X2.3581Y-6.18
X2.3583Y-3.8819
X2.3622Y-0.8031
X2.3661Y-1.5709
X2.3701Y-3.3976
X2.3724Y-6.205
X2.3736Y-5.635
X2.3736Y-5.685
X2.3736Y-5.735
X2.3736Y-5.79
X2.374Y-3.6693
X2.3744Y-6.158
X2.378Y-1.626
X2.3819Y-4.0551
X2.3858Y-5.8583
X2.3886Y-5.66
X2.3886Y-5.71
X2.3886Y-5.76
X2.389Y-6.18
X2.3898Y-3.2047
X2.3976Y-3.5866
X2.4036Y-5.635
X2.4036Y-5.685
X2.4036Y-5.735
X2.4036Y-5.79
X2.404Y-6.205
X2.4055Y-2.9685
X2.406Y-6.158
X2.4094Y-3.752
X2.4134Y-4.5433
X2.4186Y-5.66
X2.4186Y-5.71
X2.4186Y-5.76
X2.4252Y-4.748
X2.4252Y-4.9803
X2.4252Y-6.378
X2.4258Y-3.2789
X2.4336Y-5.635
X2.4336Y-5.685
X2.4336Y-5.735
X2.4336Y-5.79
X2.437Y-6.2717
X2.4486Y-5.66
X2.4486Y-5.71
X2.4486Y-5.76
X2.4606Y-5.3819
X2.4636Y-5.635
X2.4636Y-5.685
X2.4636Y-5.735
X2.4636Y-5.79
X2.4724Y-0.7992
X2.4803Y-1.1693
X2.5118Y-6.3701
X2.5157Y-2.4843
X2.5157Y-4.6142
X2.5236Y-4.815
X2.5315Y-3.5866
X2.5315Y-5.1772
X2.5315Y-5.5157
X2.5394Y-2.2047
X2.5512Y-4.689
X2.5591Y-6.0787
X2.563Y-1.1575
X2.563Y-1.3504
X2.5748Y-1.8425
X2.5748Y-3.9488
X2.5787Y-1.5709
X2.5787Y-4.9921
X2.5827Y-6.2402
X2.5866Y-2.1024
X2.5866Y-2.2913
X2.5906Y-4.626
X2.5945Y-2.7087
X2.5945Y-4.0984
X2.6024Y-3.8071
X2.6073Y-5.7942
X2.6102Y-3.1339
X2.6102Y-6.1181
X2.6142Y-2.3858
X2.6142Y-4.5354
X2.6142Y-4.8189
X2.622Y-1.5118
X2.626Y-1.2244
X2.6268Y-5.4961
X2.6299Y-1.9528
X2.6307Y-5.5162
X2.6314Y-5.7913
X2.6339Y-6.2717
X2.6417Y-3.2756
X2.6417Y-6.1102
X2.6457Y-3.8071
X2.6496Y-0.8071
X2.6535Y-6.378
X2.6614Y-4.9134
X2.6637Y-6.1088
X2.6732Y-2.1299
X2.6732Y-2.437
X2.6811Y-4.5827
X2.6811Y-4.685
X2.6811Y-5.122
X2.685Y-1.7362
X2.6929Y-3.0787
X2.6929Y-4.3425
X2.7008Y-4.5354
X2.7047Y-1.378
X2.7052Y-6.245
X2.7126Y-2.6575
X2.7126Y-4.437
X2.7126Y-5.6299
X2.7244Y-1.1654
X2.7244Y-1.5276
X2.7244Y-5.0787
X2.7283Y-3.3661
X2.7283Y-4.6654
X2.7305Y-6.2346
X2.7323Y-1.6417
X2.7323Y-3.9055
X2.7323Y-6.0945
X2.7402Y-3.0079
X2.7402Y-4.0591
X2.7441Y-2.2992
X2.748Y-2.0551
X2.748Y-3.1417
X2.7503Y-5.5636
X2.7559Y-6.0984
X2.757Y-5.5365
X2.7598Y-1.4685
X2.7638Y-2.2874
X2.7717Y-2.0276
X2.7717Y-2.5512
X2.7756Y-1.8504
X2.7756Y-3.4843
X2.7795Y-2.3228
X2.7795Y-3.2835
X2.7832Y-5.5827
X2.7835Y-2.1378
X2.7992Y-5.0945
X2.8031Y-3.3189
X2.8031Y-3.4055
X2.8031Y-4.7717
X2.8031Y-6.1024
X2.8071Y-4.9882
X2.8095Y-6.2529
X2.811Y-6.374
X2.815Y-1.6378
X2.8228Y-1.4291
X2.8228Y-6.0918
X2.8268Y-0.7992
X2.8305Y-1.7323
X2.8307Y-4.5906
X2.8386Y-1.8386
X2.8404Y-6.2636
X2.8425Y-2.1181
X2.8465Y-5.0276
X2.8543Y-3.0512
X2.8543Y-3.9646
X2.8543Y-5.4882
X2.862Y-1.6693
X2.8622Y-1.1457
X2.8622Y-4.3189
X2.8661Y-2.2441
X2.8701Y-3.4961
X2.8701Y-6.0945
X2.878Y-4.1693
X2.878Y-5.5141
X2.8785Y-6.2676
X2.8858Y-2.1969
X2.8858Y-2.4646
X2.8898Y-3.1969
X2.8937Y-1.6102
X2.8976Y-1.4881
X2.8976Y-5.0945
X2.8976Y-5.7835
X2.898Y-6.248
X2.9016Y-3.4173
X2.9062Y-5.4967
X2.9075Y-1.6713
X2.9133Y-6.122
X2.9134Y-1.5157
X2.9134Y-4.874
X2.9173Y-4.9606
X2.9252Y-2.7992
X2.9449Y-1.3898
X2.9488Y-3.6417
X2.9488Y-5.0315
X2.9646Y-5.2874
X2.9646Y-5.5394
X2.9843Y-4.7874
X2.9843Y-5.5
X2.9882Y-3.5276
X2.9882Y-4.3976
X2.9882Y-6.2323
X2.9921Y-1.7362
X2.9921Y-3.3307
X2.9921Y-6.0945
X2.9961Y-5.5472
X3.0Y-1.1693
X3.0Y-3.815
X3.0039Y-2.1299
X3.0079Y-2.4213
X3.0079Y-3.2598
X3.0118Y-2.7992
X3.0157Y-3.0236
X3.0197Y-6.0984
X3.0236Y-1.7408
X3.0236Y-3.4252
X3.0236Y-5.7953
X3.0315Y-5.4449
X3.0393Y-5.7677
X3.0509Y-1.7323
X3.0512Y-2.1929
X3.0512Y-2.4882
X3.0551Y-1.626
X3.0591Y-3.6614
X3.0669Y-5.4567
X3.0669Y-6.1063
X3.0709Y-0.8031
X3.0709Y-3.5276
X3.0787Y-2.2087
X3.0787Y-3.1535
X3.0827Y-6.2283
X3.0866Y-2.3504
X3.0866Y-5.4134
X3.0984Y-4.0433
X3.0984Y-4.9803
X3.1024Y-4.6654
X3.1024Y-4.8701
X3.1063Y-4.1339
X3.1063Y-4.4724
X3.1063Y-5.0709
X3.1102Y-1.1654
X3.1102Y-1.815
X3.1102Y-4.2087
X3.1102Y-5.3386
X3.1181Y-4.3386
X3.1201Y-5.7187
X3.122Y-2.9882
X3.122Y-3.4016
X3.126Y-3.2677
X3.1339Y-1.7874
X3.1339Y-3.7362
X3.1354Y-5.7383
X3.1378Y-3.3346
X3.1378Y-3.4961
X3.1417Y-2.2638
X3.1486Y-5.715
X3.1496Y-3.9094
X3.1575Y-1.8465
X3.1614Y-0.8031
X3.1693Y-5.3858
X3.1732Y-4.2717
X3.1732Y-4.4055
X3.1732Y-4.5906
X3.1732Y-4.7638
X3.1732Y-4.9882
X3.1772Y-5.6378
X3.1844Y-5.7049
X3.2007Y-6.2173
X3.2087Y-2.5433
X3.2126Y-2.7283
X3.2165Y-1.622
X3.2205Y-1.7795
X3.2218Y-6.2164
X3.2235Y-6.3144
X3.2244Y-4.3583
X3.2244Y-5.2165
X3.2244Y-5.3189
X3.2244Y-6.1102
X3.228Y-5.714
X3.2323Y-3.185
X3.2362Y-5.7953
X3.2402Y-3.0039
X3.2402Y-3.2638
X3.2409Y-5.7347
X3.2441Y-2.0866
X3.2441Y-3.4173
X3.246Y-6.314
X3.252Y-3.5984
X3.2559Y-0.8071
X3.2598Y-1.4134
X3.2598Y-5.563
X3.2638Y-1.1181
X3.2638Y-1.8583
X3.2638Y-5.7047
X3.2669Y-5.7953
X3.2756Y-3.4803
X3.284Y-6.118
X3.2875Y-6.3144
X3.2913Y-1.2205
X3.2913Y-2.7638
X3.2913Y-5.6417
X3.2992Y-2.4409
X3.307Y-6.118
X3.3071Y-2.2087
X3.31Y-6.3144
X3.3228Y-1.4724
X3.3268Y-3.5236
X3.3307Y-3.0984
X3.3321Y-5.7998
X3.3346Y-1.2638
X3.3386Y-4.9567
X3.3386Y-5.4094
X3.3425Y-4.5551
X3.3425Y-4.7047
X3.344Y-5.782
X3.3465Y-5.0748
X3.3465Y-5.311
X3.3465Y-5.5591
X3.3504Y-0.8071
X3.3504Y-2.5315
X3.3504Y-3.9016
X3.3543Y-3.1654
X3.3543Y-6.3071
X3.356Y-5.8
X3.3583Y-3.9252
X3.3622Y-1.5118
X3.3661Y-2.1102
X3.3661Y-5.7126
X3.3701Y-3.4213
X3.3701Y-3.7717
X3.372Y-1.4035
X3.374Y-1.626
X3.374Y-3.3386
X3.378Y-1.1142
X3.378Y-2.6142
X3.378Y-3.9953
X3.378Y-6.1024
X3.3819Y-4.5669
X3.3858Y-3.1142
X3.3858Y-3.9764
X3.4016Y-1.8071
X3.4016Y-4.0551
X3.4016Y-6.311
X3.4037Y-5.7903
X3.4051Y-5.7688
X3.4055Y-4.6181
X3.408Y-6.2909
X3.4094Y-3.9488
X3.4134Y-2.3465
X3.4173Y-5.2283
X3.4213Y-4.2756
X3.4252Y-3.7244
X3.4291Y-5.4882
X3.4331Y-1.622
X3.4331Y-4.0236
X3.4331Y-5.4016
X3.4368Y-1.3978
X3.437Y-2.8465
X3.437Y-5.7835
X3.4449Y-2.7047
X3.4488Y-3.8346
X3.4488Y-5.7126
X3.4528Y-0.8031
X3.4528Y-5.6457
X3.4537Y-1.378
X3.4567Y-5.3307
X3.4578Y-1.4477
X3.4606Y-5.4252
X3.4643Y-6.1264
X3.4852Y-6.1255
X3.4909Y-1.4488
X3.4932Y-1.4285
X3.4961Y-5.3228
X3.4961Y-5.7835
X3.5Y-5.1614
X3.5039Y-1.4685
X3.5039Y-4.4173
X3.5039Y-5.2362
X3.5197Y-4.1732
X3.5212Y-6.0723
X3.5315Y-0.8071
X3.5315Y-1.0709
X3.5315Y-5.4488
X3.5326Y-5.7826
X3.5354Y-5.7362
X3.5433Y-4.5669
X3.544Y-6.0723
X3.5472Y-5.6063
X3.554Y-5.784
X3.5669Y-1.6102
X3.5787Y-1.3051
X3.5787Y-5.5197
X3.5827Y-1.1929
X3.5827Y-3.6969
X3.5866Y-1.0709
X3.5866Y-6.0827
X3.5866Y-6.2283
X3.5906Y-1.4843
X3.5906Y-5.7717
X3.5945Y-1.8031
X3.5984Y-3.2244
X3.5984Y-4.2087
X3.5984Y-4.2441
X3.6063Y-2.2323
X3.6063Y-4.2677
X3.6142Y-3.5669
X3.618Y-6.12
X3.6181Y-2.7126
X3.6181Y-3.0394
X3.622Y-3.3504
X3.622Y-3.8583
X3.6259Y-6.0999
X3.626Y-4.2913
X3.626Y-6.2283
X3.6339Y-1.7874
X3.6339Y-2.0236
X3.6339Y-2.3898
X3.6339Y-5.2441
X3.6339Y-5.5118
X3.6339Y-5.8386
X3.6378Y-2.6457
X3.6417Y-5.189
X3.6457Y-4.311
X3.6457Y-5.6024
X3.6457Y-6.063
X3.6496Y-5.4724
X3.6535Y-4.3346
X3.6575Y-0.811
X3.6575Y-3.2087
X3.6614Y-1.1929
X3.6614Y-2.4764
X3.6614Y-3.122
X3.6614Y-3.4646
X3.6693Y-1.0906
X3.6732Y-5.5591
X3.6772Y-5.4252
X3.6772Y-5.7874
X3.6807Y-6.0913
X3.685Y-3.9173
X3.689Y-4.5
X3.6929Y-1.8228
X3.6929Y-2.0906
X3.7008Y-3.3819
X3.7047Y-5.4055
X3.7087Y-1.3819
X3.71Y-6.0913
X3.7126Y-5.6146
X3.7126Y-2.5945
X3.7139Y-5.7515
X3.714Y-5.636
X3.7283Y-1.6732
X3.7283Y-2.2953
X3.7283Y-3.0315
X3.73Y-5.766
X3.7362Y-1.2047
X3.7362Y-2.4685
X3.738Y-6.0553
X3.7402Y-3.1417
X3.7559Y-1.0945
X3.7559Y-2.8228
X3.7598Y-4.4213
X3.7638Y-3.2638
X3.764Y-6.0553
X3.7677Y-2.5236
X3.7717Y-1.311
X3.7717Y-2.2047
X3.7717Y-3.4134
X3.7717Y-5.3583
X3.7756Y-3.5079
X3.782Y-5.558
X3.7822Y-6.2283
X3.7953Y-3.0354
X3.7981Y-5.5722
X3.8031Y-3.1575
X3.8031Y-5.4882
X3.8091Y-5.7106
X3.811Y-1.063
X3.813Y-6.2264
X3.815Y-1.1299
X3.815Y-3.9803
X3.815Y-5.5945
X3.8228Y-1.2008
X3.8228Y-3.878
X3.8268Y-5.2992
X3.8303Y-5.7122
X3.8346Y-2.2874
X3.8346Y-5.4449
X3.8385Y-6.2244
X3.8504Y-3.2441
X3.8543Y-4.5118
X3.8543Y-6.1102
X3.8583Y-2.4409
X3.8583Y-3.626
X3.8583Y-5.7913
X3.8661Y-5.4134
X3.8687Y-6.2219
X3.8701Y-2.1732
X3.8701Y-5.5354
X3.8701Y-5.6299
X3.878Y-6.063
X3.8819Y-4.6102
X3.888Y-5.77
X3.8937Y-3.7087
X3.8976Y-2.0276
X3.8976Y-3.1535
X3.9016Y-1.0315
X3.9055Y-4.063
X3.9055Y-5.2323
X3.9055Y-5.378
X3.9097Y-5.7712
X3.9134Y-1.378
X3.9188Y-6.2111
X3.9213Y-1.2362
X3.928Y-5.288
X3.9292Y-5.3097
X3.9331Y-3.8504
X3.937Y-2.5551
X3.9528Y-2.2441
X3.9528Y-5.3228
X3.9528Y-6.1063
X3.962Y-5.358
X3.9635Y-5.3824
X3.9646Y-5.2283
X3.9646Y-5.622
X3.9685Y-2.1102
X3.9685Y-5.7008
X3.9724Y-3.4331
X3.9724Y-6.0591
X3.9843Y-4.1929
X3.9894Y-6.1154
X3.9921Y-2.4409
X4.011Y-6.104
X4.0197Y-1.2402
X4.0197Y-5.6181
X4.0197Y-5.685
X4.0236Y-3.063
X4.0236Y-5.9094
X4.026Y-5.318
X4.0315Y-3.4528
X4.0315Y-3.6614
X4.0315Y-3.7953
X4.0349Y-1.5792
X4.0354Y-6.104
X4.0379Y-5.3347
X4.0394Y-1.4449
X4.0394Y-3.2402
X4.0394Y-4.0591
X4.0433Y-3.5551
X4.0551Y-5.2205
X4.058Y-6.1133
X4.0591Y-1.2362
X4.063Y-1.6299
X4.0669Y-0.7953
X4.0709Y-1.3622
X4.0709Y-1.4724
X4.0769Y-5.4216
X4.078Y-5.516
X4.0787Y-2.5315
X4.0787Y-5.6181
X4.0787Y-5.7283
X4.0827Y-2.1378
X4.0828Y-5.5359
X4.0856Y-5.4401
X4.0906Y-1.4488
X4.1Y-5.21
X4.1024Y-2.4055
X4.1102Y-1.2402
X4.1102Y-1.3661
X4.1142Y-6.0787
X4.116Y-5.196
X4.118Y-5.9
X4.1181Y-1.6063
X4.1339Y-0.6299
X4.1339Y-0.7165
X4.136Y-5.6083
X4.136Y-5.6288
X4.1378Y-1.3583
X4.14Y-5.908
X4.1417Y-3.563
X4.1417Y-3.8386
X4.1417Y-3.9409
X4.1417Y-4.0945
X4.1417Y-5.5472
X4.1442Y-1.6078
X4.1457Y-0.7677
X4.1457Y-1.4488
X4.1496Y-2.9449
X4.1535Y-1.0551
X4.155Y-6.097
X4.1604Y-6.12
X4.1614Y-4.1693
X4.1614Y-5.1102
X4.1633Y-5.91
X4.1687Y-1.6119
X4.1693Y-0.8268
X4.1732Y-5.3976
X4.1772Y-0.6693
X4.186Y-5.908
X4.189Y-2.2677
X4.1929Y-2.4528
X4.1969Y-6.2323
X4.2008Y-2.0512
X4.2009Y-4.1219
X4.2065Y-5.9003
X4.2087Y-1.0551
X4.2126Y-2.1575
X4.2126Y-3.8976
X4.2141Y-3.5607
X4.2165Y-0.748
X4.2205Y-3.7756
X4.2247Y-1.7971
X4.2263Y-4.1005
X4.2264Y-4.124
X4.2283Y-1.2205
X4.2288Y-3.6547
X4.2323Y-5.3189
X4.2362Y-5.9016
X4.2402Y-3.6772
X4.2433Y-1.6417
X4.2433Y-1.7795
X4.2498Y-3.5274
X4.2559Y-6.2323
X4.2598Y-3.5591
X4.2598Y-3.748
X4.2627Y-1.3343
X4.2648Y-1.4429
X4.2677Y-3.3898
X4.2677Y-4.2795
X4.2717Y-3.5945
X4.2717Y-5.9331
X4.2756Y-2.3386
X4.2795Y-3.1299
X4.2835Y-3.1969
X4.2835Y-4.063
X4.2871Y-1.4453
X4.2874Y-3.7126
X4.2881Y-4.5033
X4.2891Y-1.3324
X4.2913Y-2.7126
X4.2953Y-3.5591
X4.302Y-5.898
X4.3029Y-1.8369
X4.3031Y-3.6457
X4.3031Y-3.9764
X4.3042Y-4.5385
X4.3063Y-1.4526
X4.3071Y-3.8031
X4.3099Y-1.3364
X4.311Y-4.4213
X4.315Y-1.9409
X4.3189Y-3.8858
X4.3189Y-5.9567
X4.3228Y-1.4646
X4.3228Y-3.4567
X4.3228Y-6.2323
X4.3234Y-1.8362
X4.3268Y-4.8189
X4.3307Y-4.3307
X4.3346Y-1.3362
X4.3346Y-6.1063
X4.3357Y-4.3108
X4.337Y-1.3585
X4.3386Y-1.7283
X4.3465Y-2.1575
X4.3543Y-1.5748
X4.3569Y-4.3102
X4.3583Y-1.4606
X4.3583Y-3.6969
X4.36Y-5.9
X4.3661Y-5.9764
X4.3701Y-0.6339
X4.3701Y-1.4252
X4.3701Y-1.5472
X4.3701Y-4.0157
X4.3704Y-1.3665
X4.374Y-1.0315
X4.374Y-2.0276
X4.378Y-4.1693
X4.3819Y-3.4291
X4.3898Y-5.7953
X4.3937Y-1.437
X4.3937Y-2.5551
X4.3937Y-3.5
X4.4016Y-0.9331
X4.4016Y-2.9252
X4.4016Y-3.5945
X4.4173Y-0.8268
X4.4173Y-0.9961
X4.422Y-5.902
X4.4252Y-2.7126
X4.4252Y-3.3543
X4.4252Y-6.1102
X4.426Y-1.4764
X4.4291Y-1.2165
X4.4291Y-1.5394
X4.4291Y-3.4252
X4.4331Y-2.8898
X4.437Y-1.7047
X4.4409Y-2.9528
X4.4409Y-2.9953
X4.4409Y-3.0661
X4.4409Y-4.7362
X4.4413Y-3.1744
X4.4415Y-3.2096
X4.442Y-3.102
X4.442Y-3.1392
X4.4439Y-1.5738
X4.4449Y-1.4409
X4.4449Y-3.2835
X4.4488Y-4.9134
X4.4528Y-0.9291
X4.456Y-3.1568
X4.456Y-3.192
X4.456Y-3.23
X4.46Y-3.12
X4.4606Y-3.5
X4.4646Y-2.9724
X4.4646Y-3.0118
X4.4646Y-3.0472
X4.4646Y-3.0827
X4.4685Y-5.5866
X4.4724Y-3.5394
X4.4764Y-2.122
X4.4764Y-4.0866
X4.4803Y-1.0
X4.4843Y-0.7205
X4.4843Y-3.8346
X4.4843Y-3.8898
X4.4871Y-6.1179
X4.4961Y-3.748
X4.4961Y-5.9843
X4.5Y-1.5236
X4.5Y-2.9606
X4.5039Y-3.4291
X4.5079Y-0.6535
X4.5079Y-0.752
X4.5079Y-2.5157
X4.5079Y-2.5827
X4.5079Y-6.1199
X4.5118Y-1.4685
X4.5118Y-3.3228
X4.5118Y-5.0197
X4.5118Y-5.6614
X4.5118Y-6.2362
X4.5157Y-1.3937
X4.5157Y-1.7598
X4.5236Y-2.6614
X4.5276Y-1.4961
X4.5354Y-1.0551
X4.5354Y-5.3346
X4.5394Y-5.937
X4.5433Y-1.6693
X4.5433Y-2.3504
X4.5433Y-3.4724
X4.5472Y-4.811
X4.5512Y-5.0787
X4.5591Y-0.9173
X4.5591Y-1.3898
X4.5591Y-2.9173
X4.5591Y-3.311
X4.563Y-3.3819
X4.5669Y-6.0157
X4.5709Y-1.5591
X4.5748Y-1.1142
X4.5787Y-3.0354
X4.5827Y-2.5669
X4.5906Y-3.1063
X4.5906Y-4.0748
X4.5945Y-5.3268
X4.5984Y-1.6693
X4.5984Y-1.9134
X4.5984Y-2.6811
X4.6063Y-4.9213
X4.6063Y-5.2756
X4.6102Y-1.7835
X4.6102Y-2.4606
X4.6142Y-3.9488
X4.6181Y-4.3268
X4.622Y-5.9488
X4.626Y-2.3819
X4.6299Y-1.9567
X4.6339Y-3.0669
X4.6339Y-4.126
X4.6339Y-4.6496
X4.6378Y-0.7677
X4.6378Y-2.5748
X4.6457Y-0.9173
X4.6457Y-1.6299
X4.6457Y-5.1102
X4.6496Y-0.8504
X4.6496Y-1.0787
X4.6496Y-3.1732
X4.6575Y-1.5472
X4.6614Y-1.3858
X4.6614Y-5.0
X4.6614Y-5.9213
X4.6614Y-6.0118
X4.6654Y-1.0197
X4.6693Y-1.9055
X4.6693Y-2.2953
X4.6811Y-1.2047
X4.6811Y-3.3622
X4.6811Y-3.6181
X4.689Y-2.0157
X4.6969Y-1.7323
X4.6969Y-2.6732
X4.6969Y-5.9606
X4.7008Y-2.437
X4.7047Y-1.7913
X4.7047Y-3.5236
X4.7087Y-3.3071
X4.7126Y-3.378
X4.7126Y-5.6102
X4.7126Y-5.6496
X4.7165Y-1.9016
X4.7165Y-3.1024
X4.7205Y-1.6535
X4.7244Y-0.8543
X4.7244Y-0.9449
X4.7283Y-1.126
X4.7283Y-1.9843
X4.7362Y-2.5433
X4.7362Y-6.2402
X4.7402Y-1.5945
X4.7441Y-1.937
X4.7559Y-1.3898
X4.7638Y-3.2835
X4.7638Y-5.0827
X4.7677Y-3.3189
X4.7677Y-5.9567
X4.7717Y-3.4567
X4.7717Y-6.0157
X4.7795Y-0.7402
X4.7795Y-3.6339
X4.7795Y-5.622
X4.7953Y-4.8543
X4.811Y-5.6378
X4.811Y-5.9252
X4.8268Y-3.2323
X4.8307Y-1.3858
X4.8346Y-2.2638
X4.8346Y-3.9213
X4.8346Y-4.0394
X4.8346Y-4.1614
X4.8386Y-0.9284
X4.8386Y-0.9784
X4.8386Y-1.0284
X4.8386Y-1.0784
X4.8386Y-1.1284
X4.8386Y-1.2284
X4.8386Y-1.4213
X4.8425Y-1.1784
X4.8425Y-1.6772
X4.8425Y-3.2756
X4.8425Y-3.5827
X4.8425Y-3.7008
X4.8465Y-0.8784
X4.8465Y-0.9055
X4.8504Y-1.7205
X4.8543Y-1.8465
X4.8543Y-2.4173
X4.8543Y-5.0787
X4.8543Y-5.9488
X4.8583Y-2.3386
X4.8583Y-3.4803
X4.8622Y-1.5512
X4.8661Y-1.4843
X4.8696Y-2.2604
X4.8701Y-2.4921
X4.8701Y-2.7323
X4.874Y-2.2205
X4.874Y-2.5669
X4.874Y-3.3386
X4.878Y-2.0748
X4.8819Y-6.0118
X4.8898Y-1.8268
X4.8898Y-2.3622
X4.8898Y-2.622
X4.8898Y-6.2323
X4.8937Y-2.0197
X4.8937Y-3.3858
X4.9016Y-2.437
X4.9094Y-4.6496
X4.9134Y-1.5236
X4.9134Y-2.0984
X4.9134Y-3.6299
X4.9173Y-4.5433
X4.9252Y-1.7913
X4.9252Y-2.4882
X4.9252Y-2.7165
X4.9291Y-1.6102
X4.9291Y-4.1732
X4.937Y-1.4724
X4.937Y-2.2402
X4.937Y-5.252
X4.9409Y-3.3661
X4.9409Y-4.9685
X4.9409Y-5.9567
X4.9488Y-1.9803
X4.9567Y-1.3071
X4.9567Y-2.4252
X4.9567Y-2.5394
X4.9685Y-0.8031
X4.9685Y-1.5709
X4.9685Y-4.8346
X4.9685Y-5.2205
X4.9685Y-5.4134
X4.9685Y-5.6039
X4.9724Y-2.2795
X4.9724Y-5.311
X4.9755Y-5.5709
X4.9764Y-1.5039
X4.9764Y-2.6299
X4.9843Y-0.9764
X4.9843Y-2.4291
X4.9882Y-2.4843
X4.9882Y-3.4724
X4.9882Y-4.2047
X4.99Y-5.5865
X4.9921Y-1.1575
X4.9921Y-3.3425
X4.9921Y-4.6496
X5.0Y-2.2913
X5.0Y-2.7362
X5.0039Y-2.1772
X5.0039Y-2.5787
X5.0039Y-0.8583
X5.0079Y-0.8976
X5.0079Y-1.874
X5.0079Y-4.7402
X5.0118Y-3.2638
X5.0118Y-4.6063
X5.0118Y-6.2402
X5.0157Y-2.3465
X5.0197Y-2.4961
X5.0197Y-2.6614
X5.0236Y-1.2087
X5.0236Y-2.0906
X5.0276Y-1.2559
X5.0315Y-2.0236
X5.0315Y-2.1693
X5.0315Y-6.063
X5.0354Y-1.311
X5.0354Y-4.9567
X5.0394Y-1.1024
X5.0394Y-3.3583
X5.0433Y-1.6732
X5.0433Y-4.8661
X5.0472Y-3.2283
X5.0511Y-1.2558
X5.0512Y-0.811
X5.0512Y-2.1969
X5.0591Y-2.2323
X5.0591Y-4.6811
X5.0669Y-0.9252
X5.0669Y-5.6496
X5.0709Y-1.315
X5.0764Y-1.2538
X5.0827Y-2.6496
X5.0866Y-0.748
X5.0866Y-1.5748
X5.0866Y-1.8543
X5.0866Y-2.0
X5.0906Y-5.0827
X5.0906Y-5.6732
X5.0945Y-5.3189
X5.0963Y-1.3129
X5.0984Y-1.4331
X5.0984Y-3.378
X5.1024Y-2.0669
X5.1024Y-2.7126
X5.1024Y-6.1535
X5.1102Y-1.2283
X5.1102Y-2.1496
X5.1142Y-3.2598
X5.1187Y-5.8253
X5.124Y-5.758
X5.1299Y-1.7953
X5.1378Y-1.0866
X5.1417Y-5.8819
X5.1457Y-2.1535
X5.148Y-5.766
X5.149Y-5.831
X5.1575Y-2.689
X5.1575Y-5.2362
X5.1575Y-5.9764
X5.1614Y-5.1102
X5.164Y-5.648
X5.1649Y-5.6718
X5.1732Y-3.311
X5.1732Y-5.0354
X5.1811Y-0.815
X5.1843Y-2.4171
X5.188Y-2.452
X5.189Y-6.2008
X5.1929Y-1.1181
X5.1929Y-1.2047
X5.1969Y-1.4488
X5.1969Y-4.3937
X5.2047Y-3.2205
X5.2047Y-4.9921
X5.2047Y-5.0945
X5.208Y-2.382
X5.2087Y-1.2677
X5.2087Y-2.752
X5.2087Y-3.5433
X5.2087Y-3.6024
X5.2087Y-3.6614
X5.2126Y-3.7165
X5.2165Y-3.7795
X5.2165Y-3.8425
X5.2244Y-3.9016
X5.2244Y-4.8504
X5.228Y-2.316
X5.228Y-2.3433
X5.2303Y-1.8504
X5.2362Y-0.7559
X5.2362Y-4.4843
X5.2441Y-2.2441
X5.2441Y-2.5197
X5.2441Y-2.7165
X5.246Y-2.4867
X5.252Y-0.811
X5.2559Y-5.2795
X5.2598Y-2.2795
X5.2638Y-1.9685
X5.2638Y-6.122
X5.2677Y-2.0591
X5.2677Y-5.4331
X5.2683Y-2.5351
X5.2835Y-1.4764
X5.2874Y-1.0079
X5.2874Y-1.2717
X5.2874Y-2.7283
X5.2913Y-1.8701
X5.2913Y-2.622
X5.292Y-2.25
X5.2953Y-0.8268
X5.2953Y-0.9606
X5.298Y-2.456
X5.2992Y-4.7205
X5.3031Y-1.5236
X5.3031Y-1.8307
X5.3071Y-4.4252
X5.3071Y-5.5354
X5.311Y-4.9843
X5.311Y-5.0906
X5.315Y-0.9291
X5.315Y-5.3071
X5.3189Y-6.2913
X5.3228Y-5.378
X5.3268Y-0.8583
X5.3307Y-1.2008
X5.3307Y-2.7598
X5.3307Y-6.0591
X5.3346Y-0.7559
X5.34Y-2.24
X5.3425Y-5.7087
X5.3504Y-5.626
X5.3523Y-2.5591
X5.3583Y-3.8189
X5.368Y-2.24
X5.3701Y-5.4724
X5.3723Y-2.5691
X5.374Y-3.6339
X5.374Y-3.9764
X5.378Y-1.9055
X5.378Y-3.3386
X5.378Y-3.7008
X5.378Y-5.0079
X5.3819Y-5.1299
X5.3819Y-6.2323
X5.3858Y-3.5118
X5.3858Y-3.5748
X5.3858Y-4.8701
X5.3898Y-2.1299
X5.3937Y-1.1102
X5.3937Y-2.0157
X5.3937Y-3.7756
X5.3937Y-4.7244
X5.3976Y-1.752
X5.4048Y-2.5451
X5.4055Y-5.9882
X5.4094Y-1.8622
X5.4134Y-3.8937
X5.4183Y-2.2391
X5.4213Y-0.8071
X5.4213Y-1.9331
X5.4213Y-2.0787
X5.4213Y-4.1929
X5.4331Y-1.1715
X5.4331Y-6.3898
X5.4343Y-2.5611
X5.4355Y-1.2111
X5.4449Y-0.8898
X5.4449Y-1.7913
X5.4488Y-1.6969
X5.4488Y-1.9055
X5.4488Y-2.7244
X5.4488Y-4.0748
X5.4505Y-1.1233
X5.4528Y-3.9646
X5.4543Y-2.1871
X5.4567Y-1.0197
X5.4567Y-1.4567
X5.4606Y-1.2402
X5.4606Y-3.2244
X5.4606Y-6.1063
X5.4646Y-1.311
X5.4646Y-5.4173
X5.4651Y-2.5566
X5.4685Y-1.1811
X5.4764Y-5.9528
X5.4843Y-4.6299
X5.4882Y-5.0512
X5.4882Y-5.1535
X5.4887Y-2.502
X5.4961Y-2.7205
X5.4961Y-3.6496
X5.4961Y-4.5197
X5.5Y-2.752
X5.5Y-3.7165
X5.5039Y-3.5748
X5.5039Y-3.7638
X5.5079Y-1.0512
X5.5079Y-3.378
X5.5079Y-3.5
X5.5118Y-1.0
X5.5118Y-1.2008
X5.5118Y-6.0866
X5.5157Y-0.9567
X5.5197Y-1.2402
X5.5197Y-1.4252
X5.5197Y-2.1496
X5.5197Y-2.2795
X5.5197Y-3.2205
X5.5203Y-2.2551
X5.5236Y-1.315
X5.5236Y-3.8543
X5.5276Y-0.8898
X5.5276Y-3.6299
X5.5276Y-5.3858
X5.5354Y-2.7205
X5.5354Y-3.5945
X5.5354Y-3.6693
X5.5394Y-1.4606
X5.5433Y-4.2559
X5.5472Y-2.2559
X5.5472Y-2.7559
X5.5512Y-1.9492
X5.563Y-1.7795
X5.563Y-2.1457
X5.5646Y-1.9051
X5.5669Y-1.6575
X5.5669Y-4.4488
X5.572Y-3.214
X5.572Y-3.252
X5.5748Y-2.5551
X5.58Y-4.056
X5.5807Y-1.376
X5.5827Y-2.2953
X5.584Y-2.3709
X5.586Y-3.232
X5.5866Y-1.8701
X5.5906Y-5.3031
X5.592Y-2.3904
X5.5958Y-2.3345
X5.596Y-4.074
X5.598Y-3.252
X5.5984Y-2.5
X5.6Y-3.214
X5.61Y-4.092
X5.612Y-3.232
X5.612Y-4.056
X5.6142Y-1.5039
X5.6142Y-1.7008
X5.6142Y-4.1732
X5.618Y-2.134
X5.6181Y-6.2047
X5.622Y-1.4606
X5.622Y-1.7638
X5.622Y-2.5236
X5.622Y-4.2402
X5.624Y-4.074
X5.624Y-4.112
X5.626Y-5.2323
X5.626Y-3.214
X5.626Y-3.252
X5.6299Y-6.3858
X5.6343Y-2.2711
X5.636Y-4.092
X5.64Y-3.868
X5.64Y-3.888
X5.64Y-3.908
X5.64Y-3.928
X5.6457Y-4.6063
X5.652Y-4.112
X5.6535Y-2.1457
X5.6535Y-2.6772
X5.656Y-3.878
X5.656Y-3.898
X5.656Y-3.918
X5.6575Y-3.2913
X5.6614Y-1.8465
X5.6614Y-3.3858
X5.6614Y-5.9606
X5.6623Y-2.3891
X5.6654Y-0.8583
X5.6654Y-2.4252
X5.6654Y-5.0748
X5.6693Y-1.9213
X5.6693Y-2.1299
X5.6693Y-4.2874
X5.6732Y-2.5354
X5.6772Y-0.7598
X5.6772Y-1.7795
X5.6811Y-1.6811
X5.685Y-0.9055
X5.685Y-3.4252
X5.689Y-1.0748
X5.689Y-3.5748
X5.689Y-3.6693
X5.6929Y-3.9488
X5.6929Y-5.7874
X5.6969Y-0.8189
X5.6969Y-1.1654
X5.6969Y-1.2598
X5.7047Y-3.4803
X5.7087Y-1.3268
X5.7087Y-2.685
X5.7126Y-3.8228
X5.7126Y-4.0512
X5.7165Y-2.5433
X5.7165Y-3.7008
X5.7165Y-3.9409
X5.7165Y-4.4528
X5.7205Y-2.5157
X5.7205Y-6.126
X5.7244Y-4.7677
X5.7244Y-5.8543
X5.7323Y-1.2283
X5.7323Y-4.8819
X5.7402Y-1.0039
X5.7402Y-1.8543
X5.7402Y-3.2992
X5.7441Y-0.7913
X5.748Y-1.7008
X5.7483Y-2.2511
X5.7483Y-2.2711
X5.7483Y-2.2911
X5.7559Y-1.7913
X5.7598Y-0.9173
X5.7638Y-3.5177
X5.7638Y-4.5827
X5.7638Y-5.4094
X5.7717Y-1.1654
X5.7717Y-1.4606
X5.7756Y-0.8031
X5.7795Y-1.3898
X5.7795Y-6.0079
X5.7795Y-6.189
X5.7874Y-1.2638
X5.7874Y-4.437
X5.7953Y-3.7953
X5.7953Y-5.7402
X5.7992Y-3.8898
X5.7992Y-6.0315
X5.811Y-3.596
X5.815Y-1.8504
X5.815Y-4.2598
X5.8189Y-1.9094
X5.8189Y-5.8425
X5.8228Y-6.1063
X5.8268Y-2.6693
X5.8307Y-1.5
X5.8307Y-1.9488
X5.8307Y-2.4921
X5.8346Y-4.1535
X5.8386Y-5.7953
X5.8425Y-4.7165
X5.8465Y-6.3819
X5.8504Y-0.878
X5.8504Y-2.5276
X5.8504Y-4.0394
X5.8583Y-1.437
X5.8622Y-1.2559
X5.8622Y-1.8858
X5.8623Y-2.2831
X5.8663Y-2.0411
X5.8701Y-3.3307
X5.8701Y-3.378
X5.8743Y-2.3811
X5.8763Y-2.1171
X5.878Y-1.3346
X5.878Y-3.563
X5.8858Y-2.1811
X5.8858Y-2.7638
X5.8976Y-1.5394
X5.8976Y-2.7165
X5.8976Y-3.2087
X5.8976Y-3.2441
X5.9016Y-2.3976
X5.9055Y-5.9567
X5.9094Y-0.9685
X5.9094Y-3.2244
X5.9094Y-3.2638
X5.9134Y-1.4882
X5.9134Y-3.4488
X5.9213Y-3.2087
X5.9213Y-3.2441
X5.9213Y-3.5512
X5.9252Y-2.6299
X5.9291Y-2.752
X5.9331Y-2.1929
X5.9331Y-2.3858
X5.9331Y-3.2244
X5.9331Y-3.2638
X5.937Y-1.3661
X5.937Y-2.5591
X5.9449Y-1.5433
X5.9449Y-3.2087
X5.9449Y-3.2441
X5.9449Y-3.4803
X5.9488Y-2.6575
X5.9488Y-2.7748
X5.9488Y-3.4291
X5.9528Y-4.5472
X5.9567Y-2.185
X5.9567Y-2.7323
X5.9646Y-1.874
X5.9646Y-2.1535
X5.9724Y-2.126
X5.9764Y-1.9567
X5.9764Y-6.1693
X5.9803Y-2.0433
X5.9843Y-2.2008
X5.9843Y-2.2598
X5.9843Y-2.6063
X5.9882Y-1.4528
X5.9961Y-1.622
X5.9961Y-3.8701
X5.9961Y-4.685
X6.0Y-3.7638
X6.0079Y-5.752
X6.0118Y-3.5472
X6.0157Y-2.6654
X6.0157Y-5.4685
X6.0157Y-5.7126
X6.0197Y-5.5866
X6.0236Y-6.0507
X6.0276Y-1.0354
X6.0315Y-4.9606
X6.0394Y-0.7717
X6.0394Y-6.126
X6.0433Y-5.5197
X6.0435Y-2.7047
X6.0472Y-5.7677
X6.0551Y-4.2205
X6.0551Y-4.3898
X6.063Y-4.0472
X6.0709Y-4.5866
X6.0787Y-3.6614
X6.0787Y-5.7677
X6.0866Y-2.7717
X6.0866Y-5.3543
X6.0866Y-6.0669
X6.0866Y-6.1535
X6.1024Y-5.9606
X6.1043Y-2.7224
X6.1102Y-5.7362
X6.1142Y-2.0354
X6.1142Y-6.189
X6.1181Y-1.0866
X6.122Y-0.6102
X6.122Y-0.6496
X6.122Y-0.9291
X6.122Y-6.378
X6.126Y-2.5945
X6.1299Y-2.2441
X6.1339Y-0.6299
X6.1339Y-0.6693
X6.1339Y-0.7756
X6.1457Y-2.3976
X6.1457Y-5.0276
X6.1496Y-0.6102
X6.1496Y-0.6496
X6.1496Y-5.4331
X6.1496Y-6.122
X6.1575Y-2.5315
X6.1614Y-0.6299
X6.1614Y-0.6693
X6.1614Y-2.2559
X6.1614Y-4.815
X6.1614Y-5.5433
X6.168Y-5.804
X6.1732Y-2.1614
X6.1772Y-0.6102
X6.1772Y-0.6496
X6.1772Y-2.0827
X6.18Y-5.7804
X6.189Y-0.6299
X6.189Y-0.6693
X6.1969Y-1.0866
X6.1969Y-3.8543
X6.2047Y-0.6102
X6.2047Y-0.6496
X6.2087Y-3.0079
X6.2087Y-4.3819
X6.2126Y-3.1024
X6.2126Y-3.4882
X6.2165Y-5.2795
X6.2205Y-5.8425
X6.2244Y-2.4724
X6.2244Y-4.0906
X6.2244Y-6.185
X6.2283Y-2.3031
X6.2323Y-2.5551
X6.2402Y-5.7362
X6.2441Y-6.122
X6.248Y-2.374
X6.252Y-2.2087
X6.2559Y-2.4016
X6.2795Y-5.5669
X6.2835Y-5.9685
X6.2913Y-6.1614
X6.2953Y-1.1614
X6.2953Y-2.2008
X6.2953Y-5.8425
X6.2992Y-2.2677
X6.3031Y-1.0787
X6.3031Y-5.3228
X6.3031Y-5.4409
X6.311Y-2.5118
X6.311Y-3.4291
X6.315Y-1.8976
X6.3268Y-1.2047
X6.3346Y-4.0394
X6.3386Y-2.2795
X6.3504Y-3.622
X6.3504Y-6.1417
X6.3543Y-1.3346
X6.3661Y-2.3976
X6.3819Y-6.3819
X6.3858Y-4.6299
X6.3858Y-5.2126
X6.3898Y-1.1614
X6.3976Y-3.6969
X6.4016Y-5.5551
X6.4055Y-5.7008
X6.4173Y-1.0591
X6.4213Y-2.5118
X6.4252Y-3.4567
X6.4291Y-2.3937
X6.4331Y-1.2323
X6.4331Y-5.3622
X6.4409Y-4.9803
X6.4409Y-5.9291
X6.4488Y-1.3701
X6.4488Y-3.1024
X6.4488Y-6.1457
X6.4528Y-3.0039
X6.4567Y-4.5276
X6.4685Y-1.126
X6.4685Y-2.063
X6.4724Y-3.5669
X6.4764Y-1.8465
X6.4843Y-3.7874
X6.4921Y-1.9882
X6.4961Y-4.6063
X6.5039Y-0.9886
X6.5039Y-3.4173
X6.5039Y-5.8622
X6.5079Y-1.2165
X6.5118Y-1.7402
X6.5197Y-4.7047
X6.5197Y-6.185
X6.5276Y-1.4646
X6.5276Y-4.7638
X6.5276Y-4.8701
X6.5276Y-5.0472
X6.5354Y-1.9094
X6.5354Y-2.9213
X6.5381Y-3.0331
X6.5394Y-2.0709
X6.5394Y-5.3189
X6.5433Y-0.8071
X6.5433Y-1.378
X6.5551Y-5.2008
X6.5551Y-5.4173
X6.558Y-4.842
X6.5587Y-3.0303
X6.5669Y-1.7717
X6.5669Y-2.0
X6.5709Y-4.9331
X6.5764Y-2.748
X6.5827Y-2.1417
X6.5827Y-6.0827
X6.5906Y-3.878
X6.5906Y-5.5591
X6.5929Y-2.7656
X6.5949Y-1.0118
X6.6047Y-3.0378
X6.6063Y-4.2795
X6.6102Y-1.6181
X6.6102Y-5.7953
X6.6102Y-6.3898
X6.612Y-2.7772
X6.6142Y-3.4409
X6.6142Y-5.1024
X6.6181Y-2.2795
X6.622Y-1.8504
X6.622Y-1.9449
X6.622Y-3.5
X6.626Y-2.4055
X6.626Y-4.5197
X6.6263Y-2.7937
X6.6299Y-2.0669
X6.6376Y-2.811
X6.6378Y-3.8189
X6.6378Y-5.7441
X6.6457Y-0.689
X6.6457Y-2.4882
X6.6457Y-4.6063
X6.6491Y-2.8279
X6.6496Y-4.4134
X6.6535Y-0.8071
X6.6575Y-2.6496
X6.6614Y-2.3504
X6.6614Y-5.9567
X6.6654Y-1.1614
X6.6654Y-2.5512
X6.6685Y-1.5157
X6.6732Y-4.9685
X6.6772Y-1.0984
X6.6811Y-2.1457
X6.6811Y-4.5433
X6.685Y-1.4488
X6.6929Y-5.2795
X6.6929Y-5.4331
X6.6929Y-5.6772
X6.6929Y-6.185
X6.6949Y-1.0118
X6.6969Y-2.2402
X6.6969Y-3.9449
X6.6969Y-4.8622
X6.6969Y-5.937
X6.7008Y-4.7008
X6.7087Y-1.437
X6.7087Y-4.7598
X6.7126Y-5.0236
X6.7165Y-5.0866
X6.7165Y-6.1142
X6.7244Y-5.6496
X6.7251Y-1.4602
X6.7283Y-1.0591
X6.7283Y-4.4646
X6.7323Y-2.5197
X6.7323Y-3.5276
X6.7402Y-2.6811
X6.7402Y-4.9685
X6.7402Y-5.2087
X6.7441Y-0.815
X6.7441Y-1.437
X6.7441Y-2.4134
X6.748Y-0.6811
X6.748Y-3.6772
X6.752Y-0.8937
X6.7559Y-3.1417
X6.7638Y-1.4488
X6.7795Y-2.248
X6.7835Y-4.1654
X6.7874Y-1.4331
X6.7874Y-2.9409
X6.7913Y-1.5945
X6.7913Y-2.4134
X6.7953Y-3.8386
X6.7953Y-4.9094
X6.7992Y-0.815
X6.7992Y-4.3465
X6.8031Y-3.1772
X6.8071Y-1.4488
X6.8106Y-2.1283
X6.811Y-5.5827
X6.815Y-2.3138
X6.8154Y-2.6417
X6.8185Y-2.4016
X6.8189Y-2.5
X6.8189Y-4.6299
X6.8228Y-5.1339
X6.8268Y-1.7795
X6.8268Y-2.0512
X6.8268Y-4.5472
X6.8307Y-0.7165
X6.8307Y-4.8661
X6.8312Y-4.9859
X6.8425Y-5.7402
X6.8465Y-1.5945
X6.8504Y-1.7205
X6.8543Y-0.7165
X6.8543Y-1.2559
X6.8583Y-3.5394
X6.8583Y-5.5118
X6.8583Y-5.7953
X6.8622Y-1.4409
X6.8622Y-5.2559
X6.8629Y-2.1508
X6.8638Y-2.1303
X6.8661Y-3.622
X6.8661Y-6.1417
X6.8701Y-1.3543
X6.8724Y-2.5445
X6.874Y-1.1929
X6.874Y-3.0276
X6.874Y-4.6181
X6.878Y-4.0551
X6.8819Y-4.7638
X6.8858Y-4.122
X6.8898Y-1.6378
X6.8898Y-2.3583
X6.8937Y-2.4961
X6.8976Y-1.8346
X6.9016Y-1.4094
X6.9016Y-4.9803
X6.9055Y-0.815
X6.9094Y-4.9173
X6.9094Y-6.0984
X6.9134Y-1.1181
X6.9173Y-4.7087
X6.9173Y-5.1614
X6.9213Y-1.9055
X6.9213Y-5.7717
X6.9331Y-1.2244
X6.9331Y-1.7008
X6.937Y-4.5945
X6.937Y-5.4528
X6.9409Y-1.437
X6.9409Y-4.2795
X6.9449Y-4.8465
X6.9488Y-4.0827
X6.9488Y-5.0157
X6.9488Y-5.185
X6.9528Y-0.7244
X6.9528Y-2.7756
X6.9567Y-3.6732
X6.9567Y-3.9016
X6.9567Y-4.4961
X6.9606Y-1.1535
X6.9606Y-3.9882
X6.9628Y-1.5136
X6.9646Y-1.5945
X6.9685Y-5.3898
X6.9685Y-6.1614
X6.9724Y-1.8465
X6.9724Y-4.9528
X6.9803Y-3.437
X6.9827Y-1.437
X6.9843Y-1.7598
X6.9882Y-0.815
X6.9882Y-1.6614
X6.9961Y-4.4055
X7.0Y-1.0118
X7.0039Y-1.4488
X7.0039Y-4.8543
X7.0079Y-1.9961
X7.0118Y-5.7874
X7.0157Y-4.626
X7.0197Y-4.2402
X7.0197Y-4.7047
X7.0222Y-1.4397
X7.0236Y-4.3071
X7.0276Y-2.9528
X7.0276Y-6.374
X7.0315Y-4.4213
X7.0315Y-4.5827
X7.0354Y-1.9173
X7.0393Y-1.5471
X7.0394Y-1.2283
X7.0394Y-4.1024
X7.0394Y-5.8937
X7.0433Y-2.0866
X7.0433Y-6.0591
X7.0443Y-1.5669
X7.0512Y-5.3504
X7.0555Y-5.0658
X7.0591Y-3.1024
X7.0616Y-1.1118
X7.063Y-4.4961
X7.0709Y-1.2165
X7.0714Y-5.0787
X7.079Y-1.138
X7.0866Y-4.874
X7.0968Y-1.1554
X7.1059Y-2.2224
X7.1063Y-1.7205
X7.1063Y-2.0394
X7.1142Y-1.0157
X7.1142Y-1.1417
X7.1181Y-3.8858
X7.1201Y-2.0118
X7.122Y-4.9449
X7.1293Y-1.2163
X7.1299Y-0.8071
X7.1299Y-5.2756
X7.1327Y-1.9862
X7.1339Y-1.2362
X7.1339Y-4.3701
X7.1339Y-4.7008
X7.1339Y-5.7717
X7.1378Y-4.248
X7.1378Y-6.0118
X7.1417Y-4.9882
X7.1453Y-1.9675
X7.1457Y-2.7638
X7.1457Y-3.4094
X7.1457Y-4.2087
X7.1457Y-5.752
X7.1535Y-1.3543
X7.1575Y-4.315
X7.1575Y-5.4409
X7.1614Y-1.4213
X7.1614Y-4.4882
X7.1619Y-1.9532
X7.164Y-4.55
X7.1654Y-1.126
X7.1654Y-3.0984
X7.1654Y-4.9094
X7.1772Y-1.4724
X7.1772Y-1.5512
X7.1772Y-4.9528
X7.1772Y-5.2047
X7.1772Y-5.626
X7.185Y-3.5394
X7.189Y-4.4055
X7.1929Y-5.6102
X7.1929Y-5.6535
X7.1969Y-1.0315
X7.1969Y-5.4921
X7.1969Y-5.7402
X7.2008Y-0.8071
X7.2047Y-1.2559
X7.2047Y-1.4134
X7.2047Y-4.6063
X7.2047Y-4.7638
X7.2047Y-5.4252
X7.2047Y-5.7756
X7.2087Y-4.8346
X7.2165Y-3.9764
X7.2205Y-6.0551
X7.2264Y-2.3929
X7.2283Y-2.3201
X7.2283Y-2.6902
X7.2315Y-2.5433
X7.2327Y-2.7445
X7.2362Y-4.1732
X7.2366Y-2.1823
X7.2402Y-1.4213
X7.2402Y-2.1299
X7.2402Y-3.3622
X7.2437Y-2.2394
X7.2441Y-1.6378
X7.2441Y-4.2638
X7.2441Y-5.7165
X7.248Y-1.9646
X7.252Y-4.1063
X7.2598Y-1.5157
X7.2598Y-4.2441
X7.262Y-1.1478
X7.2736Y-5.5413
X7.2795Y-5.748
X7.2795Y-5.8425
X7.2815Y-1.2402
X7.2835Y-1.4764
X7.2835Y-3.7756
X7.2835Y-5.3622
X7.2929Y-2.848
X7.2949Y-0.9917
X7.2953Y-0.8071
X7.2992Y-4.2126
X7.3071Y-3.5
X7.3071Y-6.378
X7.3091Y-5.7815
X7.311Y-4.8425
X7.311Y-5.2717
X7.315Y-3.1024
X7.315Y-4.7047
X7.3189Y-3.685
X7.3268Y-5.0472
X7.3268Y-5.3976
X7.3307Y-1.5827
X7.3307Y-3.8346
X7.3346Y-4.2205
X7.3346Y-5.4291
X7.3346Y-5.8976
X7.3386Y-4.4882
X7.3425Y-5.4843
X7.3443Y-1.4606
X7.3463Y-1.5079
X7.3465Y-4.5787
X7.3504Y-3.8937
X7.3543Y-3.1575
X7.3543Y-4.4409
X7.3547Y-2.0705
X7.3551Y-2.3654
X7.3583Y-5.063
X7.3608Y-1.437
X7.3614Y-2.3272
X7.3622Y-1.8386
X7.3622Y-4.752
X7.3622Y-4.8307
X7.3628Y-1.4888
X7.3661Y-1.9921
X7.3661Y-2.5009
X7.3661Y-2.6693
X7.3661Y-2.7445
X7.3681Y-2.5232
X7.3724Y-2.5685
X7.374Y-4.0354
X7.374Y-4.6732
X7.378Y-4.5118
X7.3819Y-5.6417
X7.3937Y-5.7323
X7.3937Y-5.815
X7.3976Y-3.5551
X7.4016Y-5.3268
X7.4016Y-5.5354
X7.4094Y-5.2205
X7.4094Y-5.2953
X7.4134Y-2.4961
X7.4134Y-2.9646
X7.4134Y-3.0433
X7.4134Y-3.1024
X7.4134Y-3.9213
X7.4134Y-5.4134
X7.4246Y-5.6417
X7.4252Y-3.185
X7.4291Y-5.1614
X7.4291Y-5.4843
X7.4331Y-5.7717
X7.4378Y-2.3555
X7.4409Y-0.8228
X7.4409Y-3.5433
X7.4437Y-2.5673
X7.4449Y-2.7697
X7.4449Y-2.9291
X7.4449Y-3.0709
X7.4488Y-1.0276
X7.4528Y-2.1496
X7.4563Y-2.2343
X7.4567Y-4.5798
X7.4606Y-4.4449
X7.4646Y-4.7087
X7.4646Y-4.7677
X7.4646Y-4.9173
X7.4646Y-5.7323
X7.4646Y-5.815
X7.4669Y-2.4701
X7.4685Y-1.2087
X7.4685Y-3.0433
X7.4685Y-3.1024
X7.4685Y-4.8661
X7.4685Y-4.8937
X7.4724Y-5.2283
X7.4803Y-2.3307
X7.4803Y-2.7205
X7.4803Y-3.6811
X7.4803Y-4.5354
X7.4803Y-6.1732
X7.4843Y-4.1063
X7.4882Y-2.9535
X7.4882Y-5.5354
X7.4921Y-4.685
X7.4921Y-5.4134
X7.495Y-4.647
X7.4961Y-4.5945
X7.4961Y-4.8307
X7.5Y-4.8858
X7.5Y-6.0906
X7.5039Y-5.0787
X7.5079Y-1.2598
X7.5079Y-1.3228
X7.5079Y-3.8819
X7.5079Y-4.4961
X7.5086Y-4.5229
X7.5118Y-1.374
X7.5157Y-2.5157
X7.5276Y-1.0079
X7.5276Y-2.9921
X7.5276Y-5.2559
X7.5311Y-2.2157
X7.5315Y-1.5709
X7.5315Y-5.6732
X7.5394Y-1.2362
X7.5394Y-1.7441
X7.5433Y-0.811
X7.5433Y-6.0906
X7.544Y-4.356
X7.546Y-4.318
X7.5472Y-2.5787
X7.5472Y-3.374
X7.5472Y-5.6535
X7.5512Y-1.8465
X7.5512Y-1.9843
X7.558Y-4.338
X7.558Y-5.168
X7.563Y-2.8465
X7.563Y-5.3346
X7.5669Y-1.3425
X7.5669Y-3.0433
X7.5669Y-5.5118
X7.57Y-4.318
X7.57Y-4.356
X7.5709Y-2.7598
X7.572Y-5.188
X7.5748Y-1.5
X7.5748Y-3.1024
X7.5787Y-2.3228
X7.5815Y-2.6799
X7.582Y-4.338
X7.5835Y-1.3858
X7.586Y-5.168
X7.586Y-5.208
X7.5866Y-2.0354
X7.5906Y-1.1024
X7.5906Y-1.878
X7.594Y-4.318
X7.596Y-4.356
X7.598Y-5.188
X7.598Y-5.226
X7.6067Y-2.4228
X7.612Y-5.208
X7.6142Y-3.7795
X7.6181Y-4.0354
X7.6181Y-4.248
X7.622Y-4.4291
X7.624Y-5.226
X7.626Y-1.5945
X7.626Y-4.4921
X7.6299Y-3.3898
X7.6299Y-4.6063
X7.6339Y-3.9764
X7.6378Y-1.0551
X7.6378Y-1.8268
X7.6378Y-2.1457
X7.6378Y-4.7165
X7.6417Y-2.0079
X7.6417Y-3.0079
X7.6535Y-1.9449
X7.6535Y-3.563
X7.6574Y-4.4586
X7.6575Y-3.1024
X7.6575Y-5.1417
X7.6764Y-4.451
X7.6772Y-4.1929
X7.6772Y-4.4094
X7.6969Y-1.4252
X7.6969Y-2.0748
X7.7008Y-0.811
X7.7087Y-5.1575
X7.7126Y-1.874
X7.7126Y-6.3661
X7.7165Y-4.7008
X7.7165Y-5.4803
X7.7205Y-1.3386
X7.7205Y-4.563
X7.7205Y-5.3543
X7.7323Y-1.9685
X7.7323Y-4.3819
X7.7323Y-5.9213
X7.7414Y-5.0626
X7.7414Y-5.1006
X7.7434Y-5.0286
X7.7441Y-4.6535
X7.7444Y-4.6106
X7.7453Y-2.5291
X7.7474Y-4.9886
X7.7514Y-4.7586
X7.7514Y-4.8726
X7.752Y-2.2677
X7.752Y-4.9331
X7.752Y-5.8031
X7.752Y-6.0709
X7.7534Y-4.8326
X7.7554Y-4.7946
X7.7559Y-1.1299
X7.7559Y-1.4764
X7.7559Y-2.9724
X7.7594Y-2.6598
X7.7598Y-1.1024
X7.7598Y-5.7402
X7.7638Y-2.8386
X7.7677Y-1.7441
X7.7677Y-2.7008
X7.7717Y-5.4567
X7.7795Y-4.4055
X7.7835Y-4.9567
X7.7874Y-1.9094
X7.7913Y-1.5315
X7.7953Y-3.1575
X7.7992Y-5.1732
X7.8031Y-4.2441
X7.8031Y-4.8898
X7.8071Y-1.8268
X7.8071Y-2.1575
X7.811Y-2.5236
X7.815Y-4.3465
X7.8189Y-4.4685
X7.8189Y-4.5669
X7.8307Y-4.5315
X7.8346Y-4.7008
X7.8346Y-5.3268
X7.8386Y-3.0866
X7.8465Y-0.811
X7.8465Y-2.5866
X7.8504Y-4.3819
X7.8543Y-4.9331
X7.8583Y-2.1575
X7.8583Y-3.2087
X7.8583Y-4.7795
X7.8583Y-4.8661
X7.8622Y-1.9685
X7.8622Y-4.0984
X7.8661Y-5.7717
X7.8701Y-1.4094
X7.8701Y-2.6811
X7.8701Y-4.6811
X7.8819Y-2.4134
X7.8819Y-5.0984
X7.8858Y-1.1339
X7.8898Y-4.5315
X7.8937Y-1.1024
X7.8976Y-1.6102
X7.9016Y-2.0866
X7.9016Y-4.9449
X7.9094Y-1.3071
X7.9094Y-2.7992
X7.9173Y-1.3819
X7.9213Y-4.8071
X7.9252Y-5.4646
X7.9331Y-5.7953
X7.9331Y-5.9843
X7.9409Y-2.4606
X7.9449Y-2.5945
X7.9488Y-3.0315
X7.9528Y-1.1063
X7.9528Y-6.1102
X7.9567Y-1.3858
X7.9567Y-1.6929
X7.9606Y-4.1378
X7.9646Y-1.8819
X7.9646Y-2.5866
X7.9646Y-4.2598
X7.9646Y-4.8228
X7.9724Y-1.6496
X7.9764Y-1.1732
X7.9764Y-2.9409
X7.9764Y-5.315
X7.9803Y-1.3071
X7.9803Y-3.6732
X7.9803Y-4.0039
X7.9803Y-4.4921
X7.9843Y-2.1142
X7.9843Y-2.5591
X7.9843Y-4.3819
X7.9882Y-6.378
X7.9921Y-2.5822
X8.0Y-3.5984
X8.0039Y-1.0276
X8.0039Y-5.5472
X8.0079Y-5.9843
X8.0118Y-5.7953
X8.0157Y-3.5
X8.0236Y-1.1142
X8.0236Y-4.0157
X8.0236Y-4.0984
X8.0236Y-4.7283
X8.0236Y-4.8031
X8.0276Y-1.5236
X8.0315Y-0.811
X8.0315Y-1.0118
X8.0315Y-2.8937
X8.0354Y-2.5315
X8.0354Y-3.3504
X8.0354Y-4.6496
X8.0354Y-5.0197
X8.0354Y-5.0512
X8.0433Y-2.8268
X8.0472Y-2.2992
X8.0512Y-1.752
X8.0512Y-3.7087
X8.0551Y-2.0472
X8.063Y-4.5
X8.0748Y-1.8268
X8.0787Y-0.811
X8.0787Y-1.5669
X8.0787Y-4.374
X8.0827Y-3.878
X8.0906Y-1.4606
X8.0906Y-3.5906
X8.0945Y-2.9094
X8.0945Y-3.0591
X8.0945Y-5.7835
X8.1024Y-1.6102
X8.1024Y-4.1024
X8.1024Y-4.9449
X8.1063Y-1.2441
X8.1102Y-1.4685
X8.1102Y-2.4567
X8.1102Y-3.1181
X8.1142Y-2.3228
X8.1181Y-3.3425
X8.122Y-3.4882
X8.122Y-5.1024
X8.126Y-3.4252
X8.1299Y-2.2165
X8.1299Y-3.4567
X8.1339Y-4.2283
X8.1378Y-1.5276
X8.1457Y-1.8504
X8.1496Y-4.6732
X8.1654Y-2.811
X8.1693Y-3.8661
X8.1732Y-1.374
X8.1732Y-1.9094
X8.1732Y-2.5354
X8.175Y-1.2301
X8.1772Y-3.7362
X8.185Y-4.5236
X8.189Y-5.0
X8.1969Y-5.5276
X8.2008Y-0.8071
X8.2008Y-1.6024
X8.2008Y-3.0551
X8.2047Y-1.0197
X8.2047Y-4.0591
X8.2047Y-5.6969
X8.2087Y-4.874
X8.2087Y-6.1811
X8.2125Y-1.2087
X8.2126Y-1.6929
X8.2126Y-2.5
X8.2126Y-6.0984
X8.2165Y-5.6024
X8.2205Y-2.9528
X8.2205Y-5.4331
X8.2283Y-1.1811
X8.2283Y-2.189
X8.2283Y-5.0472
X8.2362Y-1.0984
X8.2362Y-1.5354
X8.2402Y-0.6496
X8.2402Y-2.8898
X8.2559Y-2.6024
X8.2598Y-1.2835
X8.2598Y-4.7874
X8.2638Y-1.937
X8.2677Y-0.8031
X8.2687Y-1.1821
X8.2717Y-4.9449
X8.2717Y-5.5118
X8.2756Y-5.9409
X8.2795Y-1.7244
X8.2913Y-1.0945
X8.2953Y-1.5866
X8.2953Y-1.8228
X8.3228Y-5.3386
X8.3268Y-2.374
X8.3346Y-0.6451
X8.3425Y-0.8071
X8.3465Y-1.0433
X8.3543Y-1.1378
X8.3583Y-1.8386
X8.3583Y-2.0315
X8.3622Y-1.6063
X8.3622Y-2.3701
X8.3701Y-1.7165
X8.3701Y-2.2362
X8.378Y-4.4606
X8.3819Y-2.1417
X8.3858Y-1.9055
X8.3898Y-2.563
X8.3937Y-2.8425
X8.4055Y-1.4843
X8.4213Y-6.3583
X8.4252Y-1.1693
X8.437Y-1.4921
X8.438Y-0.6417
X8.4528Y-6.2362
X8.4528Y-6.2677
X8.4528Y-6.2992
X8.4724Y-6.252
X8.4724Y-6.2835
X8.4724Y-6.315
X8.4764Y-5.6969
X8.4843Y-1.3465
X8.4921Y-6.2362
X8.4921Y-6.2677
X8.4921Y-6.2992
X8.5039Y-2.5827
X8.5118Y-4.5236
X8.5118Y-6.252
X8.5118Y-6.2835
X8.5118Y-6.315
X8.5157Y-4.2362
X8.5189Y-1.189
X8.5197Y-1.063
X8.5236Y-3.0276
X8.5276Y-0.9567
X8.5315Y-6.2362
X8.5315Y-6.2677
X8.5315Y-6.2992
X8.5354Y-3.3346
X8.5354Y-5.4528
X8.5354Y-5.9803
X8.5394Y-5.6535
X8.5394Y-5.7795
X8.5394Y-6.122
X8.5433Y-1.4606
X8.5433Y-2.4331
X8.5512Y-1.0079
X8.5512Y-3.4094
X8.5551Y-4.4173
X8.5669Y-5.3465
X8.5709Y-5.0118
X8.5709Y-5.7756
X8.5748Y-3.874
X8.5787Y-1.2206
X8.5787Y-5.126
X8.5827Y-3.1417
X8.5866Y-4.0157
X8.5906Y-3.2992
X8.5945Y-5.6535
X8.5984Y-2.0748
X8.5984Y-2.2087
X8.5984Y-4.9331
X8.5984Y-5.5
X8.6018Y-1.2205
X8.6102Y-4.3504
X8.6142Y-0.9843
X8.6142Y-6.3504
X8.6181Y-3.4449
X8.6299Y-4.622
X8.6299Y-5.063
X8.6378Y-3.0394
X8.6378Y-3.1693
X8.6378Y-4.4173
X8.6417Y-5.8268
X8.6457Y-4.2598
X8.6457Y-5.315
X8.6457Y-5.5709
X8.6496Y-1.315
X8.6535Y-2.5551
X8.6535Y-4.0551
X8.6535Y-6.0354
X8.6575Y-2.3268
X8.6575Y-5.1457
X8.6614Y-6.0945
X8.6693Y-3.8583
X8.6732Y-2.9449
X8.6732Y-4.6024
X8.6772Y-5.3858
X8.689Y-1.1181
X8.689Y-5.4606
X8.7165Y-5.752
X8.7205Y-3.4724
X8.7835Y-5.9764
X8.7953Y-5.7992
T2
X0.9252Y-2.9984
X0.9252Y-3.0496
X0.9256Y-2.208
X0.9256Y-2.2592
X0.9764Y-2.9984
X0.9764Y-3.0496
X0.9768Y-2.208
X0.9768Y-2.2592
X1.0276Y-2.9984
X1.0276Y-3.0496
X1.028Y-2.208
X1.028Y-2.2592
X1.0788Y-2.9984
X1.0788Y-3.0496
X1.0792Y-2.208
X1.0792Y-2.2592
X1.2338Y-5.1505
X1.2338Y-5.185
X1.2338Y-5.2194
X1.2338Y-5.2657
X1.2338Y-5.3002
X1.2338Y-5.3346
X1.2712Y-5.1505
X1.2712Y-5.185
X1.2712Y-5.2194
X1.2712Y-5.2657
X1.2712Y-5.3002
X1.2712Y-5.3346
X1.3204Y-5.2942
X1.3205Y-5.1901
X1.3205Y-5.2421
X1.3677Y-5.1435
X1.3677Y-5.1899
X1.3677Y-5.2942
X1.3677Y-5.3404
X1.3677Y-5.2421
X1.4149Y-5.1899
X1.4149Y-5.2421
X1.4149Y-5.2942
X5.1296Y-0.9548
X5.1296Y-1.0099
X5.1572Y-0.9272
X5.1572Y-0.9823
X5.1572Y-1.0374
X5.1847Y-0.9548
X5.1847Y-1.0099
X5.2123Y-0.9272
X5.2123Y-0.9823
X5.2123Y-1.0374
X5.2399Y-0.9548
X5.2399Y-1.0099
X5.3329Y-2.3409
X5.3329Y-2.3803
X5.3329Y-2.4197
X5.3329Y-2.4591
X5.3723Y-2.3409
X5.3723Y-2.3803
X5.3723Y-2.4197
X5.3723Y-2.4591
X5.4117Y-2.3409
X5.4117Y-2.3803
X5.4117Y-2.4197
X5.4117Y-2.4591
X5.451Y-2.3409
X5.451Y-2.3803
X5.451Y-2.4197
X5.451Y-2.4591
T3
X8.3465Y-5.8898
T4
X0.9685Y-5.7905
X0.9685Y-5.822
X0.9685Y-5.8535
X0.9685Y-5.9165
X0.9685Y-5.948
X0.9685Y-5.9794
X0.9961Y-5.7747
X0.9961Y-5.8063
X0.9961Y-5.8377
X0.9961Y-5.8692
X0.9961Y-5.9007
X0.9961Y-5.9322
X0.9961Y-5.9637
X0.9961Y-5.9952
T6
X2.665Y-5.2747
X2.705Y-5.2247
X2.705Y-5.3247
X2.745Y-5.2747
X2.785Y-5.2247
X2.785Y-5.3247
X2.825Y-5.2747
X3.4413Y-4.8013
X3.4413Y-4.988
X3.505Y-4.8947
X3.5677Y-4.8013
X3.5677Y-4.988
X3.635Y-4.8947
X3.694Y-4.8013
X3.694Y-4.988
X3.765Y-4.8947
X3.8203Y-4.8013
X3.8203Y-4.988
X3.885Y-4.8947
X3.9467Y-4.8013
X3.9467Y-4.988
X4.015Y-4.8947
X4.073Y-4.8013
X4.073Y-4.988
X4.69Y-5.2747
X4.73Y-5.2247
X4.73Y-5.3247
X4.77Y-5.2747
X4.81Y-5.2247
X4.81Y-5.3247
X4.85Y-5.2747
T7
X5.9745Y-0.9016
X5.9745Y-6.1063
X8.5787Y-1.1177
X8.5787Y-5.8898
T8
X1.806Y-0.756
X1.806Y-0.856
X1.906Y-0.756
X1.906Y-0.856
X2.006Y-0.756
X2.006Y-0.856
X2.106Y-0.756
X2.106Y-0.856
X2.206Y-0.756
X2.206Y-0.856
X2.306Y-0.756
X2.306Y-0.856
X2.406Y-0.756
X2.406Y-0.856
X2.506Y-0.756
X2.506Y-0.856
X2.606Y-0.756
X2.606Y-0.856
X2.706Y-0.756
X2.706Y-0.856
X2.806Y-0.756
X2.806Y-0.856
X2.906Y-0.756
X2.906Y-0.856
X3.006Y-0.756
X3.006Y-0.856
X3.106Y-0.756
X3.106Y-0.856
X3.206Y-0.756
X3.206Y-0.856
X3.306Y-0.756
X3.306Y-0.856
X3.406Y-0.756
X3.406Y-0.856
X3.506Y-0.756
X3.506Y-0.856
X3.606Y-0.756
X3.606Y-0.856
X3.706Y-0.756
X3.706Y-0.856
X6.4953Y-0.7585
X6.4953Y-0.8585
X6.5953Y-0.7585
X6.5953Y-0.8585
X6.6953Y-0.7585
X6.6953Y-0.8585
X6.7953Y-0.7585
X6.7953Y-0.8585
X6.8953Y-0.7585
X6.8953Y-0.8585
X6.9953Y-0.7585
X6.9953Y-0.8585
X7.0953Y-0.7585
X7.0953Y-0.8585
X7.1953Y-0.7585
X7.1953Y-0.8585
X7.2953Y-0.7585
X7.2953Y-0.8585
X7.3953Y-0.7585
X7.3953Y-0.8585
X7.4953Y-0.7585
X7.4953Y-0.8585
X7.5953Y-0.7585
X7.5953Y-0.8585
X7.6953Y-0.7585
X7.6953Y-0.8585
X7.7953Y-0.7585
X7.7953Y-0.8585
X7.8953Y-0.7585
X7.8953Y-0.8585
X7.9953Y-0.7585
X7.9953Y-0.8585
X8.0953Y-0.7585
X8.0953Y-0.8585
X8.1953Y-0.7585
X8.1953Y-0.8585
X8.2953Y-0.7585
X8.2953Y-0.8585
X8.3953Y-0.7585
X8.3953Y-0.8585
T9
X2.9047Y-4.4872
X2.9047Y-5.6211
X4.6055Y-4.4872
X4.6055Y-5.6211
T10
X1.6143Y-0.806
X1.6143Y-1.6493
X1.6143Y-2.7351
X2.503Y-4.377
X3.8977Y-0.806
X3.8977Y-1.6493
X3.8977Y-2.7351
X5.0069Y-4.377
X6.3035Y-0.8085
X6.3035Y-1.6518
X6.3035Y-2.7376
X8.587Y-0.8085
X8.587Y-1.6518
X8.587Y-2.7376
T5
G00X0.7083Y-4.8319
M15
G01X0.6768Y-4.8319
M16
G05
G00X0.7083Y-5.1721
M15
G01X0.6768Y-5.1721
M16
G05
G00X0.7764Y-5.7169
M15
G01X0.7528Y-5.7169
M16
G05
G00X0.7764Y-6.0531
M15
G01X0.7528Y-6.0531
M16
G05
G00X0.8789Y-4.8319
M15
G01X0.8355Y-4.8319
M16
G05
G00X0.8789Y-5.1721
M15
G01X0.8355Y-5.1721
M16
G05
G00X0.9626Y-5.7169
M15
G01X0.939Y-5.7169
M16
G05
G00X0.9626Y-6.0531
M15
G01X0.939Y-6.0531
M16
G05
M30
