%TF.GenerationSoftware,KiCad,Pcbnew,8.0.3*%
%TF.CreationDate,2024-07-19T17:24:33+02:00*%
%TF.ProjectId,Fibel2,46696265-6c32-42e6-9b69-6361645f7063,rev?*%
%TF.SameCoordinates,Original*%
%TF.FileFunction,Soldermask,Bot*%
%TF.FilePolarity,Negative*%
%FSLAX46Y46*%
G04 Gerber Fmt 4.6, Leading zero omitted, Abs format (unit mm)*
G04 Created by KiCad (PCBNEW 8.0.3) date 2024-07-19 17:24:33*
%MOMM*%
%LPD*%
G01*
G04 APERTURE LIST*
G04 Aperture macros list*
%AMRoundRect*
0 Rectangle with rounded corners*
0 $1 Rounding radius*
0 $2 $3 $4 $5 $6 $7 $8 $9 X,Y pos of 4 corners*
0 Add a 4 corners polygon primitive as box body*
4,1,4,$2,$3,$4,$5,$6,$7,$8,$9,$2,$3,0*
0 Add four circle primitives for the rounded corners*
1,1,$1+$1,$2,$3*
1,1,$1+$1,$4,$5*
1,1,$1+$1,$6,$7*
1,1,$1+$1,$8,$9*
0 Add four rect primitives between the rounded corners*
20,1,$1+$1,$2,$3,$4,$5,0*
20,1,$1+$1,$4,$5,$6,$7,0*
20,1,$1+$1,$6,$7,$8,$9,0*
20,1,$1+$1,$8,$9,$2,$3,0*%
G04 Aperture macros list end*
%ADD10C,0.850000*%
%ADD11C,1.000000*%
%ADD12C,6.404000*%
%ADD13RoundRect,0.337500X-0.337500X-0.412500X0.337500X-0.412500X0.337500X0.412500X-0.337500X0.412500X0*%
%ADD14C,1.650000*%
%ADD15C,1.150000*%
%ADD16C,0.650000*%
%ADD17O,1.600000X1.000000*%
%ADD18C,1.625000*%
%ADD19C,0.504000*%
%ADD20C,4.000000*%
%ADD21C,1.400000*%
%ADD22O,2.100000X1.050000*%
%ADD23O,2.000000X1.000000*%
%ADD24C,0.604000*%
%ADD25C,6.200000*%
%ADD26C,1.524000*%
%ADD27C,1.100000*%
%ADD28C,1.600000*%
%ADD29R,0.300000X0.500000*%
%ADD30C,0.900000*%
%ADD31R,0.900000X1.000000*%
%ADD32RoundRect,0.135000X0.135000X0.185000X-0.135000X0.185000X-0.135000X-0.185000X0.135000X-0.185000X0*%
%ADD33R,1.000000X0.900000*%
G04 APERTURE END LIST*
D10*
%TO.C,S7*%
X18400000Y-84900000D03*
X18400000Y-87900000D03*
%TD*%
D11*
%TO.C,TPSDO1*%
X189200000Y-142200000D03*
%TD*%
%TO.C,TPWS0*%
X187200000Y-136700000D03*
%TD*%
%TO.C,TPWS1*%
X200900000Y-128500000D03*
%TD*%
%TO.C,TPTXD1*%
X57100000Y-123200000D03*
%TD*%
%TO.C,TPRXD1*%
X57100000Y-120150000D03*
%TD*%
%TO.C,TPMCLK1*%
X191600000Y-138500000D03*
%TD*%
%TO.C,TPRI1*%
X210600000Y-134400000D03*
%TD*%
%TO.C,TPLI1*%
X208100000Y-143400000D03*
%TD*%
%TO.C,TP2SDI1*%
X198600000Y-127100000D03*
%TD*%
%TO.C,TP2SC1*%
X198500000Y-130100000D03*
%TD*%
%TO.C,TP2SDI0*%
X184900000Y-138800000D03*
%TD*%
%TO.C,TP2SC0*%
X186800000Y-140900000D03*
%TD*%
%TO.C,TP15*%
X137200000Y-67200000D03*
%TD*%
%TO.C,TPN15*%
X133700000Y-60500000D03*
%TD*%
%TO.C,TP22*%
X144200000Y-58600000D03*
%TD*%
%TO.C,TPN20*%
X145400000Y-62000000D03*
%TD*%
%TO.C,TPSREQ1*%
X63700000Y-83700000D03*
%TD*%
%TO.C,TPCE1*%
X54900000Y-77900000D03*
%TD*%
%TO.C,TPSR1*%
X57100000Y-79000000D03*
%TD*%
%TO.C,TPRCV1*%
X61600000Y-82000000D03*
%TD*%
%TO.C,TPPDCS1*%
X43400000Y-128400000D03*
%TD*%
%TO.C,TPSSC1*%
X41300000Y-129200000D03*
%TD*%
%TO.C,TPSMO1*%
X41600000Y-133200000D03*
%TD*%
%TO.C,TPSMI1*%
X46100000Y-130000000D03*
%TD*%
%TO.C,TPCCT1*%
X31900000Y-139500000D03*
%TD*%
%TO.C,TPCCT0*%
X29400000Y-140800000D03*
%TD*%
%TO.C,TPCF1*%
X33200000Y-142500000D03*
%TD*%
%TO.C,TPPSDA1*%
X42500000Y-96000000D03*
%TD*%
%TO.C,TPPSCL1*%
X42300000Y-92300000D03*
%TD*%
%TO.C,TPTH1*%
X63000000Y-91800000D03*
%TD*%
%TO.C,TPPG2*%
X41800000Y-103500000D03*
%TD*%
%TO.C,TPPG1*%
X37000000Y-101200000D03*
%TD*%
%TO.C,TPA3V3*%
X212400000Y-39200000D03*
%TD*%
%TO.C,TPE3V3*%
X114300000Y-21000000D03*
%TD*%
%TO.C,TPS3V3*%
X26100000Y-44000000D03*
%TD*%
%TO.C,TPPC1*%
X50400000Y-81200000D03*
%TD*%
%TO.C,TPPC2*%
X53600000Y-81100000D03*
%TD*%
%TO.C,TP8*%
X32100000Y-69700000D03*
%TD*%
%TO.C,TP3V3*%
X31900000Y-49500000D03*
%TD*%
%TO.C,TP1V8*%
X27400000Y-29600000D03*
%TD*%
D12*
%TO.C,J2*%
X41002400Y-20472800D03*
X41002400Y-41892800D03*
X41002400Y-69472800D03*
X99002400Y-20472800D03*
X99002400Y-41892800D03*
X99002400Y-69472800D03*
D13*
X45872400Y-21742800D03*
X45872400Y-19202800D03*
X48412400Y-21742800D03*
X48412400Y-19202800D03*
X50952400Y-21742800D03*
X50952400Y-19202800D03*
X53492400Y-21742800D03*
X53492400Y-19202800D03*
X56032400Y-21742800D03*
X56032400Y-19202800D03*
X58572400Y-21742800D03*
X58572400Y-19202800D03*
X61112400Y-21742800D03*
X61112400Y-19202800D03*
X63652400Y-21742800D03*
X63652400Y-19202800D03*
X66192400Y-21742800D03*
X66192400Y-19202800D03*
X68732400Y-21742800D03*
X68732400Y-19202800D03*
X71272400Y-21742800D03*
X71272400Y-19202800D03*
X73812400Y-21742800D03*
X73812400Y-19202800D03*
X76352400Y-21742800D03*
X76352400Y-19202800D03*
X78892400Y-21742800D03*
X78892400Y-19202800D03*
X81432400Y-21742800D03*
X81432400Y-19202800D03*
X83972400Y-21742800D03*
X83972400Y-19202800D03*
X86512400Y-21742800D03*
X86512400Y-19202800D03*
X89052400Y-21742800D03*
X89052400Y-19202800D03*
X91592400Y-21742800D03*
X91592400Y-19202800D03*
X94132400Y-21742800D03*
X94132400Y-19202800D03*
%TD*%
D12*
%TO.C,J1*%
X160109800Y-20536000D03*
X160109800Y-41956000D03*
X160109800Y-69536000D03*
X218109800Y-20536000D03*
X218109800Y-41956000D03*
X218109800Y-69536000D03*
D13*
X164979800Y-21806000D03*
X164979800Y-19266000D03*
X167519800Y-21806000D03*
X167519800Y-19266000D03*
X170059800Y-21806000D03*
X170059800Y-19266000D03*
X172599800Y-21806000D03*
X172599800Y-19266000D03*
X175139800Y-21806000D03*
X175139800Y-19266000D03*
X177679800Y-21806000D03*
X177679800Y-19266000D03*
X180219800Y-21806000D03*
X180219800Y-19266000D03*
X182759800Y-21806000D03*
X182759800Y-19266000D03*
X185299800Y-21806000D03*
X185299800Y-19266000D03*
X187839800Y-21806000D03*
X187839800Y-19266000D03*
X190379800Y-21806000D03*
X190379800Y-19266000D03*
X192919800Y-21806000D03*
X192919800Y-19266000D03*
X195459800Y-21806000D03*
X195459800Y-19266000D03*
X197999800Y-21806000D03*
X197999800Y-19266000D03*
X200539800Y-21806000D03*
X200539800Y-19266000D03*
X203079800Y-21806000D03*
X203079800Y-19266000D03*
X205619800Y-21806000D03*
X205619800Y-19266000D03*
X208159800Y-21806000D03*
X208159800Y-19266000D03*
X210699800Y-21806000D03*
X210699800Y-19266000D03*
X213239800Y-21806000D03*
X213239800Y-19266000D03*
%TD*%
D14*
%TO.C,J1201*%
X129773518Y-152659534D03*
D15*
X60973518Y-152659534D03*
%TD*%
D16*
%TO.C,J402*%
X25301000Y-152278000D03*
X24600000Y-151878000D03*
X24600000Y-151078000D03*
X25301000Y-150679000D03*
X24600000Y-150279000D03*
X25301000Y-149879000D03*
X25301000Y-149078000D03*
X24600000Y-148678000D03*
X25301000Y-148278000D03*
X24600000Y-147879000D03*
X24600000Y-147078000D03*
X25301000Y-146678000D03*
D17*
X24151000Y-145209000D03*
X19421000Y-145209000D03*
D16*
X25301000Y-147479000D03*
X25301000Y-151479000D03*
D17*
X24151000Y-153749000D03*
X19421000Y-153749000D03*
%TD*%
D18*
%TO.C,IC1*%
X217900000Y-28390000D03*
%TD*%
D19*
%TO.C,U204*%
X23500800Y-77459600D03*
X24800800Y-77459600D03*
X26100800Y-77459600D03*
X27400800Y-77459600D03*
X23500800Y-76159600D03*
X24800800Y-76159600D03*
X26100800Y-76159600D03*
X27400800Y-76159600D03*
%TD*%
D18*
%TO.C,IC2*%
X217900000Y-149600000D03*
%TD*%
%TO.C,IC3*%
X151752000Y-22900000D03*
%TD*%
D15*
%TO.C,J902*%
X139779600Y-103268800D03*
D20*
X167779600Y-93268800D03*
X179779600Y-93268800D03*
X197779600Y-93268800D03*
X217779600Y-93268800D03*
D14*
X139779600Y-83268800D03*
%TD*%
D19*
%TO.C,U205*%
X23511200Y-57383200D03*
X24811200Y-57383200D03*
X26111200Y-57383200D03*
X27411200Y-57383200D03*
X23511200Y-56083200D03*
X24811200Y-56083200D03*
X26111200Y-56083200D03*
X27411200Y-56083200D03*
%TD*%
D21*
%TO.C,J8*%
X177120000Y-150500000D03*
%TD*%
D16*
%TO.C,J401*%
X21272800Y-124159800D03*
X21272800Y-129940800D03*
D22*
X21772800Y-122729800D03*
D23*
X17591800Y-122729800D03*
D22*
X21772800Y-131370800D03*
D23*
X17591800Y-131370800D03*
%TD*%
D24*
%TO.C,U1*%
X135456100Y-59460000D03*
X135456100Y-60460000D03*
X135456100Y-61460000D03*
X135456100Y-62460000D03*
X136456100Y-59460000D03*
X136456100Y-60460000D03*
X136456100Y-61460000D03*
X136456100Y-62460000D03*
X137456100Y-59460000D03*
X137456100Y-60460000D03*
X137456100Y-61460000D03*
X137456100Y-62460000D03*
X138456100Y-59460000D03*
X138456100Y-60460000D03*
X138456100Y-61460000D03*
X138456100Y-62460000D03*
%TD*%
D18*
%TO.C,IC4*%
X151752000Y-155100000D03*
%TD*%
D25*
%TO.C,A501*%
X63575518Y-111176534D03*
X127175518Y-111176534D03*
D26*
X67691518Y-133976534D03*
X68707518Y-132706534D03*
X68707518Y-135246534D03*
X69723518Y-133976534D03*
X70739518Y-132706534D03*
X70739518Y-135246534D03*
X71755518Y-133976534D03*
X87410212Y-121953867D03*
X87410212Y-126695200D03*
X89027518Y-124324534D03*
X90618906Y-121953867D03*
X90618906Y-126695200D03*
X92329518Y-124324534D03*
X93827600Y-121953867D03*
X93827600Y-126695200D03*
X95631518Y-124324534D03*
X97036294Y-121953867D03*
X97036294Y-126695200D03*
X98679518Y-124324534D03*
X100244988Y-121953867D03*
X100244988Y-126695200D03*
X101981518Y-124324534D03*
X103453682Y-121953867D03*
X103453682Y-126695200D03*
X119126518Y-133976534D03*
X120142518Y-132706534D03*
X120142518Y-135246534D03*
X121158518Y-133976534D03*
X122174518Y-132706534D03*
X122174518Y-135246534D03*
X123190518Y-133976534D03*
%TD*%
D27*
%TO.C,J901*%
X189843000Y-131259600D03*
D20*
X217968000Y-121259600D03*
D28*
X189843000Y-111259600D03*
%TD*%
D29*
%TO.C,D15*%
X130300000Y-16500000D03*
X131000000Y-16500000D03*
%TD*%
D11*
%TO.C,TPSLP1*%
X82100000Y-143300000D03*
%TD*%
%TO.C,TPCB3*%
X54000000Y-120100000D03*
%TD*%
D30*
%TO.C,MIC701*%
X216850000Y-35630000D03*
X218550000Y-35630000D03*
X216850000Y-33170000D03*
X218550000Y-33170000D03*
%TD*%
D11*
%TO.C,TPHPD1*%
X36400000Y-136800000D03*
%TD*%
D31*
%TO.C,S5*%
X130950000Y-19600000D03*
X130950000Y-18000000D03*
X126850000Y-18000000D03*
X126850000Y-19600000D03*
%TD*%
%TO.C,S4*%
X123450000Y-19600000D03*
X123450000Y-18000000D03*
X119350000Y-18000000D03*
X119350000Y-19600000D03*
%TD*%
D29*
%TO.C,D16*%
X137750000Y-16500000D03*
X138450000Y-16500000D03*
%TD*%
D11*
%TO.C,TP907*%
X138300000Y-95250000D03*
%TD*%
%TO.C,TP905*%
X138300000Y-89150000D03*
%TD*%
D32*
%TO.C,R34*%
X137310000Y-21700000D03*
X136290000Y-21700000D03*
%TD*%
D33*
%TO.C,S2*%
X28300000Y-17100000D03*
X26700000Y-17100000D03*
X26700000Y-21200000D03*
X28300000Y-21200000D03*
%TD*%
D11*
%TO.C,TP901*%
X192000000Y-113800000D03*
%TD*%
D31*
%TO.C,S6*%
X138450000Y-19500000D03*
X138450000Y-17900000D03*
X134350000Y-17900000D03*
X134350000Y-19500000D03*
%TD*%
D30*
%TO.C,MIC702*%
X218550000Y-142370000D03*
X216850000Y-142370000D03*
X218550000Y-144830000D03*
X216850000Y-144830000D03*
%TD*%
D32*
%TO.C,R32*%
X121610000Y-21700000D03*
X120590000Y-21700000D03*
%TD*%
D33*
%TO.C,S1*%
X33400000Y-17100000D03*
X31800000Y-17100000D03*
X31800000Y-21200000D03*
X33400000Y-21200000D03*
%TD*%
D11*
%TO.C,TP904*%
X188400000Y-124100000D03*
%TD*%
%TO.C,TPCB0*%
X53900000Y-122200000D03*
%TD*%
%TO.C,TP903*%
X188500000Y-115700000D03*
%TD*%
%TO.C,TPCHGE1*%
X40300000Y-93300000D03*
%TD*%
%TO.C,TP902*%
X189700000Y-114000000D03*
%TD*%
D32*
%TO.C,R33*%
X129510000Y-21700000D03*
X128490000Y-21700000D03*
%TD*%
D11*
%TO.C,TPSWK1*%
X74600000Y-133200000D03*
%TD*%
%TO.C,TPCHGI1*%
X31000000Y-93800000D03*
%TD*%
D33*
%TO.C,S3*%
X23200000Y-17100000D03*
X21600000Y-17100000D03*
X21600000Y-21200000D03*
X23200000Y-21200000D03*
%TD*%
D11*
%TO.C,TP906*%
X138300000Y-92200000D03*
%TD*%
%TO.C,TPOTG1*%
X24800000Y-101500000D03*
%TD*%
D29*
%TO.C,D14*%
X122800000Y-16500000D03*
X123500000Y-16500000D03*
%TD*%
M02*
